<svg width="20" height="20" viewBox="0 0 20 20" fill="currentColor" xmlns="http://www.w3.org/2000/svg">
<g id="type=404">
<path id="Vector" d="M11.0385 14.5C11.0385 14.7054 10.9776 14.9062 10.8635 15.0769C10.7493 15.2477 10.5872 15.3808 10.3974 15.4594C10.2076 15.538 9.99885 15.5586 9.79741 15.5185C9.59597 15.4784 9.41093 15.3795 9.2657 15.2343C9.12047 15.0891 9.02156 14.904 8.98149 14.7026C8.94142 14.5011 8.96199 14.2923 9.04059 14.1026C9.11919 13.9128 9.25229 13.7507 9.42306 13.6365C9.59384 13.5224 9.79461 13.4615 10 13.4615C10.2754 13.4615 10.5396 13.5709 10.7343 13.7657C10.9291 13.9604 11.0385 14.2246 11.0385 14.5ZM10 5.15385C8.09096 5.15385 6.53846 6.55144 6.53846 8.26923V8.61538C6.53846 8.79899 6.6114 8.97509 6.74124 9.10492C6.87107 9.23475 7.04716 9.30769 7.23077 9.30769C7.41438 9.30769 7.59047 9.23475 7.72031 9.10492C7.85014 8.97509 7.92308 8.79899 7.92308 8.61538V8.26923C7.92308 7.31731 8.8551 6.53846 10 6.53846C11.1449 6.53846 12.0769 7.31731 12.0769 8.26923C12.0769 9.22115 11.1449 10 10 10C9.81639 10 9.6403 10.0729 9.51047 10.2028C9.38063 10.3326 9.30769 10.5087 9.30769 10.6923V11.3846C9.30769 11.5682 9.38063 11.7443 9.51047 11.8741C9.6403 12.004 9.81639 12.0769 10 12.0769C10.1836 12.0769 10.3597 12.004 10.4895 11.8741C10.6194 11.7443 10.6923 11.5682 10.6923 11.3846V11.3223C12.2708 11.0324 13.4615 9.77327 13.4615 8.26923C13.4615 6.55144 11.909 5.15385 10 5.15385ZM19 10C19 11.78 18.4722 13.5201 17.4832 15.0001C16.4943 16.4802 15.0887 17.6337 13.4442 18.3149C11.7996 18.9961 9.99002 19.1743 8.24419 18.8271C6.49836 18.4798 4.89471 17.6226 3.63604 16.364C2.37737 15.1053 1.5202 13.5016 1.17294 11.7558C0.82567 10.01 1.0039 8.20038 1.68509 6.55585C2.36628 4.91131 3.51983 3.50571 4.99987 2.51677C6.47991 1.52784 8.21997 1 10 1C12.3862 1.00252 14.6739 1.95154 16.3612 3.63882C18.0485 5.3261 18.9975 7.61382 19 10ZM17.6154 10C17.6154 8.49382 17.1688 7.02146 16.332 5.76912C15.4952 4.51677 14.3058 3.54069 12.9143 2.9643C11.5228 2.38791 9.99155 2.2371 8.51431 2.53094C7.03708 2.82478 5.68014 3.55008 4.61511 4.61511C3.55008 5.68014 2.82479 7.03707 2.53095 8.51431C2.23711 9.99155 2.38792 11.5227 2.96431 12.9143C3.5407 14.3058 4.51678 15.4952 5.76912 16.332C7.02146 17.1687 8.49382 17.6154 10 17.6154C12.019 17.6131 13.9547 16.81 15.3824 15.3824C16.81 13.9547 17.6131 12.019 17.6154 10Z" fill="currentColor"/>
</g>
</svg>
