<svg width="20" height="20" viewBox="0 0 20 20" fill="currentColor" xmlns="http://www.w3.org/2000/svg">
    <g id="type=bell">
        <path id="Vector"
              d="M17.3278 13.7453C16.8942 12.9984 16.2497 10.8852 16.2497 8.125C16.2497 6.4674 15.5912 4.87769 14.4191 3.70558C13.247 2.53348 11.6573 1.875 9.9997 1.875C8.3421 1.875 6.75239 2.53348 5.58029 3.70558C4.40819 4.87769 3.7497 6.4674 3.7497 8.125C3.7497 10.8859 3.10439 12.9984 2.6708 13.7453C2.56007 13.9352 2.50137 14.1509 2.50062 14.3707C2.49986 14.5905 2.55708 14.8066 2.6665 14.9973C2.77592 15.1879 2.93367 15.3463 3.12385 15.4565C3.31403 15.5667 3.5299 15.6248 3.7497 15.625H6.93799C7.08218 16.3306 7.46566 16.9647 8.02356 17.4201C8.58146 17.8756 9.27953 18.1243 9.9997 18.1243C10.7199 18.1243 11.418 17.8756 11.9759 17.4201C12.5337 16.9647 12.9172 16.3306 13.0614 15.625H16.2497C16.4694 15.6247 16.6852 15.5665 16.8753 15.4562C17.0654 15.346 17.223 15.1875 17.3323 14.9969C17.4416 14.8063 17.4988 14.5903 17.498 14.3705C17.4972 14.1508 17.4385 13.9351 17.3278 13.7453ZM9.9997 16.875C9.61206 16.8749 9.23399 16.7546 8.91752 16.5308C8.60104 16.3069 8.36173 15.9905 8.23252 15.625H11.7669C11.6377 15.9905 11.3984 16.3069 11.0819 16.5308C10.7654 16.7546 10.3873 16.8749 9.9997 16.875ZM3.7497 14.375C4.35127 13.3406 4.9997 10.9438 4.9997 8.125C4.9997 6.79892 5.52649 5.52715 6.46417 4.58947C7.40185 3.65178 8.67362 3.125 9.9997 3.125C11.3258 3.125 12.5976 3.65178 13.5352 4.58947C14.4729 5.52715 14.9997 6.79892 14.9997 8.125C14.9997 10.9414 15.6466 13.3383 16.2497 14.375H3.7497Z"
              fill="currentColor"/>
    </g>
</svg>
