<svg width="20" height="20" viewBox="0 0 20 20" fill="none" xmlns="http://www.w3.org/2000/svg">
<g id="type=bloodPressure">
<g id="Vector">
<path d="M10.6001 17.7001C6.8001 19.2001 2.4001 16.2 2.5001 12.1C2.5001 9.10005 7.4001 3.30005 8.5001 2.00005C10.0001 3.80005 11.5001 5.70005 12.7001 7.70005C12.8001 7.80005 13.0001 7.90005 13.1001 7.80005C13.2001 7.70005 13.3001 7.50005 13.2001 7.40005C11.8001 5.30005 10.3001 3.30005 8.7001 1.40005C8.6001 1.30005 8.6001 1.30005 8.5001 1.30005C8.4001 1.30005 8.3001 1.30005 8.3001 1.40005C8.0001 1.60005 1.8001 8.50005 1.8001 12.1C1.8001 14.3 2.9001 16.3 4.7001 17.6C6.5001 18.9 8.8001 19.1 10.8001 18.3C10.9001 18.3 10.9001 18.2001 11.0001 18.1C11.0001 18 11.0001 17.9 11.0001 17.9C11.0001 17.8 10.9001 17.8001 10.8001 17.7001C10.7001 17.6 10.7001 17.7001 10.6001 17.7001Z" fill="#212022"/>
<path d="M14.4001 11.5L12.8001 12.7C12.6001 12.8 12.6001 13 12.7001 13.2C12.8001 13.3 12.9001 13.3 13.0001 13.3C13.1001 13.3 13.1001 13.3 13.2001 13.2L14.8001 12C15.0001 11.9 15.0001 11.7 14.9001 11.5C14.8001 11.4 14.6001 11.4 14.4001 11.5Z" fill="#212022"/>
<path d="M17.3001 13C17.3001 10.6 15.4001 8.70005 13.0001 8.70005C10.6001 8.70005 8.7001 10.6 8.7001 13C8.7001 15.4 10.6001 17.3 13.0001 17.3C15.4001 17.3 17.3001 15.4 17.3001 13ZM13.0001 16.6C11.0001 16.6 9.4001 15 9.4001 13C9.4001 11 11.0001 9.40005 13.0001 9.40005C15.0001 9.40005 16.6001 11 16.6001 13C16.6001 15 15.0001 16.6 13.0001 16.6Z" fill="#212022"/>
<path d="M8.5001 19C7.1001 19 5.8001 18.6 4.6001 17.8C2.7001 16.5 1.6001 14.4 1.6001 12.1C1.6001 8.40005 7.8001 1.50005 8.1001 1.20005C8.3001 1.00005 8.7001 1.00005 8.9001 1.20005C10.6001 3.10005 12.1001 5.10005 13.5001 7.20005C13.7001 7.50005 13.6001 7.80005 13.3001 8.00005C13.0001 8.20005 12.7001 8.10005 12.5001 7.80005C11.3001 5.90005 9.9001 4.10005 8.5001 2.40005C7.2001 4.00005 2.7001 9.40005 2.7001 12.1C2.7001 14 3.6001 15.7 5.2001 16.8C6.8001 17.9 8.8001 18.2001 10.5001 17.5C10.6001 17.5 10.8001 17.5 10.9001 17.5C11.0001 17.6 11.1001 17.7 11.2001 17.8C11.3001 17.9 11.2001 18.1 11.2001 18.2001C11.1001 18.3001 11.0001 18.4 10.9001 18.5C10.1001 18.9 9.3001 19 8.5001 19ZM8.2001 1.40005L8.4001 1.60005C6.2001 4.00005 2.1001 9.30005 2.1001 12.1C2.1001 14.2 3.1001 16.2 4.9001 17.4C6.6001 18.6 8.8001 18.9 10.8001 18.1V18L10.6001 17.7001L10.7001 17.9C8.8001 18.7 6.7001 18.4001 4.9001 17.2001C3.2001 16.0001 2.1001 14.1 2.2001 12.1C2.2001 9.10005 6.8001 3.50005 8.3001 1.90005L8.5001 1.70005L8.7001 1.90005C10.3001 3.70005 11.7001 5.60005 13.0001 7.60005H13.1001V7.50005C11.8001 5.40005 10.2001 3.40005 8.6001 1.50005L8.2001 1.40005Z" fill="#212022"/>
<path d="M13.0001 13.6C12.8001 13.6 12.6001 13.5 12.5001 13.3C12.4001 13.2 12.4001 13 12.4001 12.8C12.4001 12.6 12.5001 12.5 12.7001 12.4L14.3001 11.2C14.4001 11.1 14.6001 11.1 14.7001 11.1C14.9001 11.1 15.0001 11.2 15.1001 11.4C15.3001 11.7 15.2001 12.1 14.9001 12.3L13.3001 13.5C13.2001 13.6 13.1001 13.6 13.0001 13.6ZM14.6001 11.7L13.0001 12.9C12.9001 12.9 12.9001 13 13.0001 13.1C13.0001 13.1 13.0001 13.2 13.2001 13.1L14.8001 11.9C14.7001 11.9 14.7001 11.8 14.6001 11.7C14.7001 11.7 14.7001 11.7 14.6001 11.7Z" fill="#212022"/>
<path d="M13.0001 17.6C10.5001 17.6 8.4001 15.6 8.4001 13C8.4001 10.5 10.5001 8.40005 13.0001 8.40005C15.5001 8.40005 17.6001 10.4 17.6001 13C17.6001 15.5 15.5001 17.6 13.0001 17.6ZM13.0001 9.00005C10.8001 9.00005 9.0001 10.8 9.0001 13C9.0001 15.2 10.8001 17.1 13.1001 17.1C15.3001 17.1 17.2001 15.3 17.2001 13C17.1001 10.8 15.3001 9.00005 13.0001 9.00005ZM13.0001 16.9C10.9001 16.9 9.2001 15.2 9.2001 13.1C9.2001 11 10.9001 9.20005 13.0001 9.20005C15.1001 9.20005 16.9001 10.9 16.9001 13.1C16.9001 15.1 15.2001 16.9 13.0001 16.9ZM13.0001 9.70005C11.2001 9.70005 9.7001 11.2 9.7001 13.1C9.7001 14.9 11.2001 16.4 13.0001 16.4C14.8001 16.4 16.4001 14.9 16.4001 13C16.4001 11.2 14.9001 9.70005 13.0001 9.70005Z" fill="#212022"/>
</g>
</g>
</svg>
