<svg width="20" height="20" viewBox="0 0 20 20" fill="none" xmlns="http://www.w3.org/2000/svg">
<g id="type=bloodGas">
<g id="Vector">
<path d="M10.4292 1.28553C10.334 1.28553 10.2388 1.28553 10.2388 1.38077C10.2388 1.38077 8.5245 2.99981 6.81023 5.09505C5.09596 7.19029 3.28646 9.76172 3.28646 11.7617C3.28646 15.5712 6.52452 18.7141 10.4292 18.7141C14.334 18.7141 17.572 15.5712 17.572 11.7617C17.572 9.76172 15.7625 7.19029 14.0483 5.09505C12.334 2.99981 10.6197 1.38077 10.6197 1.38077C10.5245 1.28553 10.5245 1.28553 10.4292 1.28553ZM10.4292 1.95219C10.715 2.23791 12.0483 3.57124 13.6673 5.38077C15.3816 7.476 17.0006 10.0474 17.0006 11.6665C17.0006 15.1903 14.0483 18.0474 10.4292 18.0474C6.81023 18.0474 3.85788 15.1903 3.85788 11.6665C3.85788 9.95219 5.47691 7.476 7.19118 5.38077C8.81021 3.57124 10.1435 2.23791 10.4292 1.95219Z" fill="#212022"/>
<path d="M12.5241 11.0953C11.667 11.0953 11.0003 11.762 11.0003 12.5239C11.0003 13.2858 11.667 13.9525 12.5241 13.9525C13.3812 13.9525 14.0479 13.2858 14.0479 12.5239C14.0479 11.6668 13.3812 11.0953 12.5241 11.0953ZM12.5241 11.6668C13.0003 11.6668 13.3812 12.0477 13.3812 12.5239C13.3812 13.0001 13.0003 13.381 12.5241 13.381C12.0479 13.381 11.667 13.0001 11.667 12.5239C11.667 12.0477 12.0479 11.6668 12.5241 11.6668Z" fill="#212022"/>
<path d="M10.238 7.28581C9.38089 7.28581 8.71423 7.95247 8.71423 8.71438C8.71423 9.47628 9.38089 10.143 10.238 10.143C11.0952 10.143 11.7618 9.47628 11.7618 8.71438C11.7618 7.95247 11.0952 7.28581 10.238 7.28581ZM10.238 7.85724C10.7142 7.85724 11.0952 8.23819 11.0952 8.71438C11.1904 9.19057 10.7142 9.57152 10.238 9.57152C9.76184 9.57152 9.38089 9.19057 9.38089 8.71438C9.38089 8.23819 9.76184 7.85724 10.238 7.85724Z" fill="#212022"/>
<path d="M8.23841 11.0953C7.38128 11.0953 6.71462 11.762 6.71462 12.5239C6.71462 13.2858 7.38128 13.9525 8.23841 13.9525C9.09555 13.9525 9.76221 13.2858 9.76221 12.5239C9.76221 11.6668 9.09555 11.0953 8.23841 11.0953ZM8.23841 11.6668C8.7146 11.6668 9.09555 12.0477 9.09555 12.5239C9.19079 13.0001 8.7146 13.381 8.23841 13.381C7.76223 13.381 7.38128 13.0001 7.38128 12.5239C7.38128 12.0477 7.76223 11.6668 8.23841 11.6668Z" fill="#212022"/>
<path d="M10.4285 19C6.3333 19 3 15.7619 3 11.7619C3 10.0476 4.14285 7.85714 6.52377 4.90476C8.23804 2.80952 9.95231 1.19048 9.95231 1.19048C10.1428 1.09524 10.238 1 10.4285 1C10.619 1 10.7142 1.09524 10.8094 1.19048C10.8094 1.19048 12.5237 2.90476 14.238 4.90476C16.6189 7.85714 17.7618 10.0476 17.7618 11.7619C17.857 15.7619 14.5237 19 10.4285 19ZM10.4285 1.57143C10.4285 1.57143 8.71423 3.19048 6.99996 5.28571C4.71427 8.04762 3.57142 10.2381 3.57142 11.7619C3.57142 15.4762 6.61901 18.4286 10.4285 18.4286C14.238 18.4286 17.2856 15.381 17.2856 11.7619C17.2856 10.2381 16.1427 8.04762 13.857 5.28571C12.1428 3.19048 10.4285 1.57143 10.4285 1.57143ZM10.4285 18.4286C6.61901 18.4286 3.57142 15.4762 3.57142 11.7619C3.57142 9.7619 5.66664 6.80952 6.99996 5.28571C8.42852 3.57143 9.76184 2.2381 10.238 1.7619L10.4285 1.57143L10.619 1.7619C11.0952 2.2381 12.4285 3.47619 13.857 5.28571C15.0951 6.80952 17.2856 9.7619 17.2856 11.7619C17.2856 15.4762 14.1427 18.4286 10.4285 18.4286ZM10.4285 2.33333C9.85707 2.90476 8.71423 4.14286 7.47614 5.66667C5.38093 8.2381 4.14285 10.4286 4.14285 11.7619C4.14285 15.0952 6.99996 17.8571 10.4285 17.8571C13.857 17.8571 16.7141 15.0952 16.7141 11.7619C16.7141 10.4286 15.4761 8.14286 13.3808 5.66667C12.1428 4.14286 10.9999 2.90476 10.4285 2.33333Z" fill="#212022"/>
<path d="M12.5233 14.2379C11.571 14.2379 10.7138 13.476 10.7138 12.5236C10.7138 11.5712 11.4757 10.8093 12.5233 10.8093C13.5709 10.8093 14.3328 11.5712 14.3328 12.5236C14.3328 13.476 13.4757 14.2379 12.5233 14.2379ZM12.5233 11.2855C11.8567 11.2855 11.2853 11.857 11.2853 12.4284C11.2853 12.9998 11.8567 13.5712 12.5233 13.5712C13.19 13.5712 13.7614 12.9998 13.7614 12.4284C13.7614 11.857 13.19 11.2855 12.5233 11.2855ZM12.5233 13.6665C11.8567 13.6665 11.3805 13.1903 11.3805 12.5236C11.3805 11.857 11.9519 11.3808 12.5233 11.3808C13.0948 11.3808 13.6662 11.857 13.6662 12.5236C13.6662 13.1903 13.19 13.6665 12.5233 13.6665ZM12.5233 11.9522C12.1424 11.9522 11.9519 12.2379 11.9519 12.5236C11.9519 12.8093 12.2376 13.0951 12.5233 13.0951C12.8091 13.0951 13.0948 12.8093 13.0948 12.5236C13.0948 12.2379 12.9043 11.9522 12.5233 11.9522Z" fill="#212022"/>
<path d="M10.2373 10.4284C9.28491 10.4284 8.42777 9.66648 8.42777 8.7141C8.42777 7.76172 9.18967 6.99981 10.2373 6.99981C11.2849 6.99981 12.0468 7.76172 12.0468 8.7141C12.0468 9.66648 11.1896 10.4284 10.2373 10.4284ZM10.2373 7.57124C9.57062 7.57124 8.9992 8.14267 8.9992 8.7141C8.9992 9.28553 9.57062 9.85696 10.2373 9.85696C10.9039 9.85696 11.4754 9.28553 11.4754 8.7141C11.4754 8.14267 10.9039 7.57124 10.2373 7.57124ZM10.2373 9.85696C9.57062 9.85696 9.09443 9.38077 9.09443 8.7141C9.09443 8.04743 9.66585 7.57124 10.2373 7.57124C10.8087 7.57124 11.3801 8.04743 11.3801 8.7141C11.4754 9.38077 10.9039 9.85696 10.2373 9.85696ZM10.2373 8.14267C9.95157 8.14267 9.66586 8.42839 9.66586 8.7141C9.66586 8.99981 9.95157 9.28553 10.2373 9.28553C10.523 9.28553 10.8087 8.99981 10.8087 8.7141C10.8087 8.42839 10.6182 8.14267 10.2373 8.14267Z" fill="#212022"/>
<path d="M8.23767 14.2379C7.2853 14.2379 6.42816 13.476 6.42816 12.5236C6.42816 11.5712 7.19006 10.8093 8.23767 10.8093C9.28528 10.8093 10.0472 11.5712 10.0472 12.5236C10.0472 13.476 9.19004 14.2379 8.23767 14.2379ZM8.23767 11.2855C7.57101 11.2855 6.99959 11.857 6.99959 12.4284C6.99959 12.9998 7.57101 13.5712 8.23767 13.5712C8.90433 13.5712 9.47575 12.9998 9.47575 12.4284C9.47575 11.857 8.90433 11.2855 8.23767 11.2855ZM8.23767 13.6665C7.57101 13.6665 7.09482 13.1903 7.09482 12.5236C7.09482 11.857 7.66625 11.3808 8.23767 11.3808C8.80909 11.3808 9.38052 11.857 9.38052 12.5236C9.38052 13.1903 8.90433 13.6665 8.23767 13.6665ZM8.23767 11.9522C7.85672 11.9522 7.66625 12.2379 7.66625 12.5236C7.66625 12.8093 7.95196 13.0951 8.23767 13.0951C8.52338 13.0951 8.80909 12.8093 8.80909 12.5236C8.80909 12.2379 8.61862 11.9522 8.23767 11.9522Z" fill="#212022"/>
</g>
</g>
</svg>
