<svg width="20" height="20" viewBox="0 0 20 20" fill="none" xmlns="http://www.w3.org/2000/svg">
<g id="type=breathingRate">
<g id="Vector">
<path d="M18.8001 12.3C18.3001 8.30002 16.7001 5.60002 14.6001 4.90002C14.0001 4.80002 12.9001 4.70002 12.0001 6.20002L11.5001 5.80002V2.10002C11.5001 1.80002 11.3001 1.60002 11.0001 1.60002C10.8001 1.60002 10.5001 1.80002 10.5001 2.10002V6.00002C10.5001 6.10002 10.6001 6.30002 10.7001 6.40002L13.9001 9.20002C14.3001 9.50002 14.8001 9.70002 15.3001 9.70002H15.4001C15.7001 9.70002 15.9001 9.50002 15.9001 9.20002C15.9001 8.90002 15.7001 8.70002 15.4001 8.70002H15.2001C14.9001 8.70002 14.6001 8.60002 14.4001 8.40002L12.6001 6.80002C13.3001 5.60003 13.9001 5.80002 14.2001 5.80002C16.0001 6.30002 17.3001 8.70002 17.8001 12.4C18.3001 16.1 17.7001 17.1 17.3001 17.3C16.6001 17.8 15.3001 17.1 14.3001 16.5C12.1001 15.2 11.7001 14.5 11.7001 11.3C11.7001 10.9 11.7001 10.4 11.8001 10L12.4001 10.5C12.7001 10.7 12.8001 11 12.8001 11.4C12.8001 11.7 13.0001 11.9 13.3001 11.9C13.6001 11.9 13.8001 11.7 13.8001 11.4C13.8001 10.8 13.5001 10.2 13.1001 9.80002L10.3001 7.40002C10.1001 7.20002 9.90007 7.20002 9.70007 7.40002L6.90007 9.80002C6.40007 10.2 6.20007 10.8 6.20007 11.4C6.20007 11.7 6.40007 11.9 6.70007 11.9C7.00007 11.9 7.20007 11.7 7.20007 11.4C7.20007 11.1 7.40007 10.7 7.60007 10.5L8.10007 10C8.20007 10.5 8.20007 10.9 8.20007 11.3C8.20007 14.4 7.90007 15.1 5.60007 16.5C4.70007 17.1 3.30007 17.8 2.60007 17.3C2.20007 17 1.60007 16 2.10007 12.4C2.60007 8.70002 3.90007 6.40002 5.70007 5.80002C5.90007 5.70003 6.60007 5.50002 7.30007 6.80002L5.50007 8.40002C5.30007 8.60002 5.00007 8.70002 4.70007 8.70002H4.60007C4.30007 8.70002 4.10007 8.90002 4.10007 9.20002C4.10007 9.50002 4.30007 9.70002 4.60007 9.70002H4.70007C5.20007 9.70002 5.70007 9.50002 6.10007 9.20002L9.30007 6.40002C9.40007 6.30002 9.50007 6.20002 9.50007 6.00002V2.10002C9.50007 1.80002 9.30007 1.60002 9.00007 1.60002C8.70007 1.60002 8.50007 1.80002 8.50007 2.00002V5.70002L8.00007 6.20002C7.10007 4.70002 6.00007 4.80002 5.40007 4.90002C3.30007 5.50002 1.70007 8.20002 1.20007 12.2C0.800073 15.5 1.10007 17.3 2.10007 18C2.40007 18.2 2.80007 18.3 3.20007 18.3C4.10007 18.3 5.20007 17.8 6.10007 17.2C8.60007 15.7 9.10007 14.7 9.10007 11.2C9.10007 10.6 9.00007 9.80002 8.90007 9.10003L9.90007 8.20002L10.9001 9.10003C10.8001 9.80002 10.7001 10.5 10.7001 11.2C10.7001 14.6 11.2001 15.7 13.7001 17.2C14.7001 17.8 15.7001 18.3 16.6001 18.3C17.0001 18.3 17.3001 18.2 17.7001 18C18.9001 17.4 19.2001 15.6 18.8001 12.3Z" fill="#212022"/>
<path d="M16.8001 18.5C15.8001 18.5 14.7001 17.9 13.8001 17.4C11.2001 15.9 10.7001 14.8 10.7001 11.3C10.7001 10.6 10.8001 10 10.9001 9.30002L10.0001 8.50002L9.10007 9.30002C9.20007 10 9.30007 10.7 9.30007 11.3C9.30007 14.8 8.80007 15.8 6.20007 17.4C5.00007 18.2 4.00007 18.5 3.20007 18.5C2.80007 18.5 2.40007 18.4 2.10007 18.2C1.00007 17.5 0.700073 15.6 1.10007 12.2C1.70007 8.10002 3.20007 5.40002 5.40007 4.80002C6.00007 4.70002 7.10007 4.60002 8.00007 6.00002L8.40007 5.70002V2.00002C8.40007 1.70002 8.70007 1.40002 9.00007 1.40002C9.30007 1.40002 9.60007 1.70002 9.60007 2.00002V5.90002C9.60007 6.10002 9.50007 6.20002 9.40007 6.30002L6.20007 9.20002C5.80007 9.50002 5.20007 9.70002 4.70007 9.70002H4.60007C4.20007 9.70002 4.00007 9.50002 4.00007 9.10002C4.00007 8.70002 4.30007 8.50002 4.60007 8.50002H4.70007C5.00007 8.50002 5.20007 8.40002 5.40007 8.20002L7.10007 6.70002C6.50007 5.70002 5.90007 5.90002 5.80007 6.00002C4.10007 6.50002 2.80007 8.90002 2.30007 12.5C1.80007 16.2 2.50007 17.1 2.80007 17.3C3.50007 17.8 5.10007 16.8 5.70007 16.5C7.90007 15.2 8.20007 14.5 8.20007 11.4C8.20007 11 8.20007 10.6 8.20007 10.3L7.80007 10.7C7.60007 10.9 7.40007 11.2 7.40007 11.5C7.30007 11.8 7.00007 12 6.70007 12C6.40007 12 6.10007 11.7 6.10007 11.4C6.10007 10.7 6.40007 10.1 6.90007 9.70002L9.60007 7.30002C9.80007 7.10002 10.2001 7.10002 10.4001 7.30002L13.2001 9.70002C13.7001 10.1 14.0001 10.8 14.0001 11.4C14.0001 11.7 13.7001 12 13.4001 12C13.1001 12 12.8001 11.7 12.8001 11.4C12.8001 11.1 12.7001 10.8 12.4001 10.6L12.0001 10.3C12.0001 10.7 11.9001 11 11.9001 11.4C11.9001 14.5 12.2001 15.1 14.4001 16.5C15.8001 17.4 16.8001 17.7 17.3001 17.3C17.6001 17.1 18.3001 16.2 17.8001 12.5C17.3001 8.90002 16.0001 6.50002 14.3001 6.00002C14.0001 5.90002 13.5001 5.80002 12.9001 6.80002L14.6001 8.30002C14.8001 8.50002 15.0001 8.60002 15.3001 8.60002H15.5001C15.8001 8.60002 16.1001 8.90002 16.1001 9.20002C16.1001 9.50002 15.8001 9.80002 15.5001 9.80002H15.4001C14.9001 9.80002 14.3001 9.60002 13.9001 9.20002L10.7001 6.40002C10.6001 6.30002 10.5001 6.10002 10.5001 6.00002V2.00002C10.5001 1.70002 10.8001 1.40002 11.1001 1.40002C11.4001 1.40002 11.7001 1.70002 11.7001 2.00002V5.60002L12.0001 6.00002C12.9001 4.60002 14.0001 4.70002 14.6001 4.80002C16.8001 5.40002 18.4001 8.20002 18.9001 12.2C19.3001 15.5 19.0001 17.4 17.9001 18.2C17.6001 18.4 17.2001 18.5 16.8001 18.5ZM10.0001 8.20002L11.1001 9.20002V9.30002C11.0001 10 10.9001 10.7 10.9001 11.3C10.9001 14.7 11.4001 15.7 13.9001 17.2C14.7001 17.7 15.8001 18.3 16.8001 18.3C17.2001 18.3 17.5001 18.2 17.8001 18C18.9001 17.3 19.2001 15.5 18.7001 12.3C18.2001 8.30002 16.6001 5.70002 14.5001 5.00002C13.8001 4.80002 12.9001 4.90002 12.1001 6.20002L12.0001 6.30002L11.3001 5.70002V2.00002C11.3001 1.80002 11.1001 1.60002 10.9001 1.60002C10.7001 1.60002 10.6001 1.80002 10.6001 2.00002V5.90002C10.6001 6.00002 10.6001 6.10002 10.7001 6.20002L14.0001 9.00002C14.4001 9.30002 14.8001 9.50002 15.3001 9.50002H15.4001C15.6001 9.50002 15.8001 9.30002 15.8001 9.10002C15.8001 8.90002 15.6001 8.70002 15.4001 8.70002H15.2001C14.9001 8.70002 14.6001 8.60002 14.3001 8.40002L12.4001 6.80002V6.70002C13.1001 5.40002 13.8001 5.60002 14.1001 5.70002C16.0001 6.20002 17.3001 8.70002 17.8001 12.4C18.3001 16 17.7001 17.1 17.2001 17.4C16.6001 17.8 15.6001 17.5 14.1001 16.6C11.8001 15.2 11.5001 14.5 11.5001 11.3C11.5001 10.9 11.5001 10.4 11.6001 10V9.70002L12.4001 10.4C12.7001 10.6 12.8001 11 12.8001 11.4C12.8001 11.6 13.0001 11.8 13.2001 11.8C13.4001 11.8 13.6001 11.6 13.6001 11.4C13.6001 10.8 13.3001 10.3 12.9001 9.90002L10.1001 7.50002C10.0001 7.40002 9.80007 7.40002 9.60007 7.50002L7.00007 9.90002C6.60007 10.3 6.30007 10.8 6.30007 11.4C6.30007 11.6 6.50007 11.8 6.70007 11.8C6.90007 11.8 7.00007 11.7 7.00007 11.5C7.00007 11.1 7.20007 10.8 7.40007 10.5L8.20007 9.80002V10C8.30007 10.4 8.30007 10.9 8.30007 11.3C8.30007 14.5 7.90007 15.2 5.70007 16.6C4.70007 17.2 3.30007 17.9 2.60007 17.4C2.10007 17.1 1.50007 15.9 2.00007 12.4C2.50007 8.70002 3.80007 6.30002 5.70007 5.70002C6.30007 5.50002 6.90007 5.80002 7.40007 6.70002V6.80002L5.60007 8.50002C5.30007 8.70002 5.00007 8.80002 4.70007 8.80002H4.60007C4.40007 8.80002 4.20007 9.00002 4.20007 9.20002C4.20007 9.40002 4.40007 9.60003 4.60007 9.60003H4.70007C5.20007 9.50002 5.70007 9.30002 6.00007 9.00002L9.20007 6.20002C9.30007 6.10002 9.30007 6.00002 9.30007 5.90002V2.00002C9.30007 1.80002 9.10007 1.60002 8.90007 1.60002C8.80007 1.70002 8.60007 1.90002 8.60007 2.00002V5.70002L7.90007 6.40002V6.20002C7.10007 4.90002 6.10007 4.90002 5.40007 5.10002C3.30007 5.70002 1.80007 8.40002 1.30007 12.3C0.900073 15.5 1.20007 17.3 2.20007 18C2.50007 18.2 2.80007 18.3 3.20007 18.3C3.90007 18.3 4.90007 18 6.10007 17.2C8.60007 15.7 9.10007 14.8 9.10007 11.3C9.10007 10.6 9.00007 9.90002 8.90007 9.30002V9.20002L10.0001 8.20002Z" fill="#212022"/>
</g>
</g>
</svg>
