<svg width="20" height="20" viewBox="0 0 20 20" fill="currentColor" xmlns="http://www.w3.org/2000/svg">
<g id="type=brokenParts" clip-path="url(#clip0_4259_49160)">
<path id="Vector" d="M19.44 17.56H17.7921L12.3678 1.9675C12.2697 1.68498 12.086 1.44003 11.8423 1.26665C11.5986 1.09327 11.307 1.00008 11.0079 1H9.1521C8.85313 1.00001 8.56158 1.09308 8.3179 1.26629C8.07422 1.43949 7.89049 1.68425 7.7922 1.9666L2.3679 17.56H0.72C0.529044 17.56 0.345909 17.6359 0.210883 17.7709C0.0758569 17.9059 0 18.089 0 18.28C0 18.471 0.0758569 18.6541 0.210883 18.7891C0.345909 18.9241 0.529044 19 0.72 19H19.44C19.631 19 19.8141 18.9241 19.9491 18.7891C20.0841 18.6541 20.16 18.471 20.16 18.28C20.16 18.089 20.0841 17.9059 19.9491 17.7709C19.8141 17.6359 19.631 17.56 19.44 17.56ZM7.1487 8.2H13.0113L14.5143 12.52H5.6457L7.1487 8.2ZM9.1521 2.44H11.0079L12.51 6.76H7.65L9.1521 2.44ZM5.1453 13.96H15.0147L16.2675 17.56H3.8925L5.1453 13.96Z" fill="currentColor"/>
</g>
<defs>
<clipPath id="clip0_4259_49160">
<rect width="20" height="20" fill="white"/>
</clipPath>
</defs>
</svg>
