<svg width="20" height="20" viewBox="0 0 20 20" fill="none" xmlns="http://www.w3.org/2000/svg">
<g id="type=chevronUp">
<path id="Vector" d="M16.6919 12.9422C16.6339 13.0003 16.5649 13.0464 16.4891 13.0779C16.4132 13.1093 16.3319 13.1255 16.2497 13.1255C16.1676 13.1255 16.0863 13.1093 16.0104 13.0779C15.9345 13.0464 15.8656 13.0003 15.8076 12.9422L9.99974 7.1336L4.19192 12.9422C4.07465 13.0595 3.91559 13.1254 3.74974 13.1254C3.58388 13.1254 3.42483 13.0595 3.30755 12.9422C3.19027 12.8249 3.12439 12.6659 3.12439 12.5C3.12439 12.3342 3.19027 12.1751 3.30755 12.0578L9.55755 5.80782C9.61559 5.74971 9.68453 5.70361 9.7604 5.67215C9.83627 5.6407 9.9176 5.62451 9.99974 5.62451C10.0819 5.62451 10.1632 5.6407 10.2391 5.67215C10.3149 5.70361 10.3839 5.74971 10.4419 5.80782L16.6919 12.0578C16.75 12.1159 16.7961 12.1848 16.8276 12.2607C16.859 12.3365 16.8752 12.4179 16.8752 12.5C16.8752 12.5821 16.859 12.6635 16.8276 12.7393C16.7961 12.8152 16.75 12.8841 16.6919 12.9422Z" fill="#212022"/>
</g>
</svg>
