<svg width="20" height="20" viewBox="0 0 20 20" fill="currentColor" xmlns="http://www.w3.org/2000/svg">
    <g id="type=chevronLeft">
        <path id="Vector"
              d="M12.9419 15.8078C13 15.8659 13.046 15.9348 13.0774 16.0107C13.1089 16.0865 13.125 16.1679 13.125 16.25C13.125 16.3321 13.1089 16.4134 13.0774 16.4893C13.046 16.5652 13 16.6341 12.9419 16.6922C12.8838 16.7502 12.8149 16.7963 12.739 16.8277C12.6631 16.8592 12.5818 16.8753 12.4997 16.8753C12.4176 16.8753 12.3363 16.8592 12.2604 16.8277C12.1845 16.7963 12.1156 16.7502 12.0575 16.6922L5.80751 10.4422C5.7494 10.3841 5.7033 10.3152 5.67185 10.2393C5.6404 10.1634 5.62421 10.0821 5.62421 9.99998C5.62421 9.91785 5.6404 9.83652 5.67185 9.76064C5.7033 9.68477 5.7494 9.61584 5.80751 9.55779L12.0575 3.30779C12.1748 3.19052 12.3338 3.12463 12.4997 3.12463C12.6656 3.12463 12.8246 3.19052 12.9419 3.30779C13.0592 3.42507 13.125 3.58413 13.125 3.74998C13.125 3.91583 13.0592 4.07489 12.9419 4.19217L7.13329 9.99998L12.9419 15.8078Z"
              fill="currentColor"/>
    </g>
</svg>
