<svg width="20" height="20" viewBox="0 0 20 20" fill="none" xmlns="http://www.w3.org/2000/svg">
<g id="type=clockCountdown">
<path id="Vector" d="M18.1248 10.6765C17.992 12.2202 17.4211 13.6939 16.4792 14.9242C15.5373 16.1545 14.2637 17.0902 12.8081 17.6212C11.3525 18.1522 9.77549 18.2564 8.26266 17.9216C6.74984 17.5868 5.3641 16.8269 4.26849 15.7312C3.17288 14.6356 2.41297 13.2499 2.07816 11.7371C1.74336 10.2242 1.84759 8.64727 2.37859 7.19167C2.90959 5.73607 3.84527 4.4624 5.07555 3.52052C6.30582 2.57863 7.77952 2.00771 9.32325 1.87493C9.40532 1.86815 9.48793 1.87762 9.56635 1.90277C9.64477 1.92792 9.71747 1.96828 9.78029 2.02152C9.84312 2.07477 9.89484 2.13987 9.9325 2.21311C9.97017 2.28635 9.99304 2.36629 9.99981 2.44836C10.0066 2.53044 9.99712 2.61305 9.97197 2.69147C9.94682 2.76989 9.90646 2.84258 9.85321 2.90541C9.79996 2.96823 9.73486 3.01995 9.66163 3.05762C9.58839 3.09528 9.50845 3.11815 9.42637 3.12493C8.1198 3.23719 6.87247 3.72029 5.83115 4.5174C4.78982 5.3145 3.99783 6.39245 3.54835 7.6244C3.09887 8.85635 3.0106 10.1911 3.29394 11.4715C3.57728 12.7519 4.22043 13.9247 5.14772 14.852C6.07501 15.7793 7.24786 16.4225 8.52827 16.7058C9.80868 16.9891 11.1434 16.9009 12.3753 16.4514C13.6073 16.0019 14.6852 15.2099 15.4823 14.1686C16.2794 13.1273 16.7626 11.8799 16.8748 10.5734C16.8885 10.4076 16.9674 10.2541 17.0943 10.1465C17.2212 10.039 17.3856 9.98625 17.5514 9.99993C17.7171 10.0136 17.8707 10.0926 17.9782 10.2194C18.0858 10.3463 18.1385 10.5107 18.1248 10.6765ZM9.37481 5.62493V9.99993C9.37481 10.1657 9.44066 10.3247 9.55787 10.4419C9.67508 10.5591 9.83405 10.6249 9.99981 10.6249H14.3748C14.5406 10.6249 14.6995 10.5591 14.8168 10.4419C14.934 10.3247 14.9998 10.1657 14.9998 9.99993C14.9998 9.83417 14.934 9.67519 14.8168 9.55798C14.6995 9.44077 14.5406 9.37493 14.3748 9.37493H10.6248V5.62493C10.6248 5.45917 10.559 5.30019 10.4418 5.18298C10.3245 5.06577 10.1656 4.99993 9.99981 4.99993C9.83405 4.99993 9.67508 5.06577 9.55787 5.18298C9.44066 5.30019 9.37481 5.45917 9.37481 5.62493ZM12.4998 3.74993C12.6852 3.74993 12.8665 3.69494 13.0207 3.59193C13.1748 3.48891 13.295 3.3425 13.3659 3.17119C13.4369 2.99989 13.4555 2.81139 13.4193 2.62953C13.3831 2.44767 13.2938 2.28063 13.1627 2.14951C13.0316 2.0184 12.8646 1.92911 12.6827 1.89294C12.5009 1.85677 12.3124 1.87533 12.141 1.94629C11.9697 2.01725 11.8233 2.13741 11.7203 2.29158C11.6173 2.44575 11.5623 2.62701 11.5623 2.81243C11.5623 3.06107 11.6611 3.29952 11.8369 3.47534C12.0127 3.65115 12.2512 3.74993 12.4998 3.74993ZM15.3123 5.62493C15.4977 5.62493 15.679 5.56994 15.8332 5.46693C15.9873 5.36392 16.1075 5.2175 16.1784 5.04619C16.2494 4.87489 16.268 4.68639 16.2318 4.50453C16.1956 4.32267 16.1063 4.15563 15.9752 4.02451C15.8441 3.8934 15.6771 3.80411 15.4952 3.76794C15.3134 3.73177 15.1249 3.75033 14.9535 3.82129C14.7822 3.89225 14.6358 4.01241 14.5328 4.16658C14.4298 4.32075 14.3748 4.50201 14.3748 4.68743C14.3748 4.93607 14.4736 5.17452 14.6494 5.35034C14.8252 5.52615 15.0637 5.62493 15.3123 5.62493ZM17.1873 8.43743C17.3727 8.43743 17.554 8.38244 17.7082 8.27943C17.8623 8.17641 17.9825 8.03 18.0534 7.85869C18.1244 7.68739 18.143 7.49889 18.1068 7.31703C18.0706 7.13517 17.9813 6.96813 17.8502 6.83701C17.7191 6.7059 17.5521 6.61661 17.3702 6.58044C17.1884 6.54427 16.9999 6.56283 16.8285 6.63379C16.6572 6.70475 16.5108 6.82491 16.4078 6.97908C16.3048 7.13325 16.2498 7.31451 16.2498 7.49993C16.2498 7.74857 16.3486 7.98702 16.5244 8.16284C16.7002 8.33865 16.9387 8.43743 17.1873 8.43743Z" fill="#212022"/>
</g>
</svg>
