<svg width="20" height="20" viewBox="0 0 20 20" fill="none" xmlns="http://www.w3.org/2000/svg">
<g id="type=dashboard">
<path id="Vector" d="M16.5455 2H3.45455C3.06878 2 2.69881 2.15325 2.42603 2.42603C2.15325 2.69881 2 3.06878 2 3.45455V16.5455C2 16.9312 2.15325 17.3012 2.42603 17.574C2.69881 17.8468 3.06878 18 3.45455 18H16.5455C16.9312 18 17.3012 17.8468 17.574 17.574C17.8468 17.3012 18 16.9312 18 16.5455V3.45455C18 3.06878 17.8468 2.69881 17.574 2.42603C17.3012 2.15325 16.9312 2 16.5455 2ZM16.5455 9.27273H10.7273V3.45455H16.5455V9.27273ZM9.27273 3.45455V9.27273H3.45455V3.45455H9.27273ZM3.45455 10.7273H9.27273V16.5455H3.45455V10.7273ZM16.5455 16.5455H10.7273V10.7273H16.5455V16.5455Z" fill="#212022"/>
</g>
</svg>
