<svg width="20" height="20" viewBox="0 0 20 20" fill="none" xmlns="http://www.w3.org/2000/svg">
<g id="type=departmentManagement">
<path id="Vector" d="M2.25 10.0024C2.31566 10.0516 2.39038 10.0874 2.46989 10.1078C2.5494 10.1282 2.63214 10.1327 2.71339 10.1211C2.79464 10.1095 2.87281 10.082 2.94343 10.0402C3.01406 9.99833 3.07575 9.94302 3.125 9.87735C3.50341 9.37281 3.99409 8.96329 4.55819 8.68124C5.12229 8.39919 5.74432 8.25235 6.375 8.25235C7.00568 8.25235 7.6277 8.39919 8.1918 8.68124C8.75591 8.96329 9.24659 9.37281 9.625 9.87735C9.72457 10.0098 9.87269 10.0974 10.0368 10.1206C10.2009 10.1439 10.3675 10.1011 10.5 10.0016C10.5472 9.96644 10.5891 9.92459 10.6242 9.87735C11.0026 9.37281 11.4933 8.96329 12.0574 8.68124C12.6215 8.39919 13.2435 8.25235 13.8742 8.25235C14.5049 8.25235 15.1269 8.39919 15.691 8.68124C16.2551 8.96329 16.7458 9.37281 17.1242 9.87735C17.2238 10.01 17.3719 10.0976 17.5361 10.121C17.7003 10.1443 17.867 10.1015 17.9996 10.002C18.1322 9.9024 18.2198 9.75424 18.2432 9.59008C18.2666 9.42591 18.2238 9.25918 18.1242 9.12657C17.571 8.38491 16.8333 7.80097 15.9844 7.43282C16.4498 7.00793 16.7758 6.45227 16.9197 5.83876C17.0637 5.22525 17.0188 4.58256 16.7909 3.99503C16.563 3.4075 16.1629 2.90258 15.6429 2.54655C15.123 2.19052 14.5075 2 13.8773 2C13.2472 2 12.6317 2.19052 12.1118 2.54655C11.5918 2.90258 11.1917 3.4075 10.9638 3.99503C10.7359 4.58256 10.691 5.22525 10.8349 5.83876C10.9789 6.45227 11.3049 7.00793 11.7703 7.43282C11.1574 7.69786 10.6006 8.07729 10.1297 8.55079C9.65881 8.07729 9.102 7.69786 8.48906 7.43282C8.95444 7.00793 9.2805 6.45227 9.42443 5.83876C9.56836 5.22525 9.52345 4.58256 9.29558 3.99503C9.06772 3.4075 8.66755 2.90258 8.1476 2.54655C7.62765 2.19052 7.0122 2 6.38203 2C5.75186 2 5.13642 2.19052 4.61646 2.54655C4.09651 2.90258 3.69634 3.4075 3.46848 3.99503C3.24062 4.58256 3.1957 5.22525 3.33964 5.83876C3.48357 6.45227 3.80962 7.00793 4.275 7.43282C3.42238 7.79977 2.68102 8.38408 2.125 9.12735C2.07575 9.19301 2.03992 9.26773 2.01955 9.34724C1.99918 9.42675 1.99467 9.50949 2.00628 9.59074C2.01789 9.67199 2.04539 9.75016 2.0872 9.82079C2.12902 9.89141 2.18434 9.95311 2.25 10.0024ZM13.875 3.25235C14.2458 3.25235 14.6084 3.36232 14.9167 3.56835C15.225 3.77438 15.4654 4.06721 15.6073 4.40982C15.7492 4.75243 15.7863 5.12943 15.714 5.49315C15.6416 5.85686 15.463 6.19096 15.2008 6.45318C14.9386 6.7154 14.6045 6.89398 14.2408 6.96633C13.8771 7.03867 13.5001 7.00154 13.1575 6.85963C12.8149 6.71771 12.522 6.47739 12.316 6.16905C12.11 5.86071 12 5.49819 12 5.12735C12 4.63007 12.1975 4.15316 12.5492 3.80153C12.9008 3.4499 13.3777 3.25235 13.875 3.25235ZM6.375 3.25235C6.74584 3.25235 7.10835 3.36232 7.41669 3.56835C7.72504 3.77438 7.96536 4.06721 8.10727 4.40982C8.24919 4.75243 8.28632 5.12943 8.21397 5.49315C8.14163 5.85686 7.96305 6.19096 7.70083 6.45318C7.4386 6.7154 7.10451 6.89398 6.74079 6.96633C6.37708 7.03867 6.00008 7.00154 5.65747 6.85963C5.31486 6.71771 5.02202 6.47739 4.81599 6.16905C4.60997 5.86071 4.5 5.49819 4.5 5.12735C4.5 4.63007 4.69754 4.15316 5.04917 3.80153C5.40081 3.4499 5.87772 3.25235 6.375 3.25235ZM15.9844 15.5578C16.4498 15.1329 16.7758 14.5773 16.9197 13.9638C17.0637 13.3502 17.0188 12.7076 16.7909 12.12C16.563 11.5325 16.1629 11.0276 15.6429 10.6716C15.123 10.3155 14.5075 10.125 13.8773 10.125C13.2472 10.125 12.6317 10.3155 12.1118 10.6716C11.5918 11.0276 11.1917 11.5325 10.9638 12.12C10.7359 12.7076 10.691 13.3502 10.8349 13.9638C10.9789 14.5773 11.3049 15.1329 11.7703 15.5578C11.1574 15.8229 10.6006 16.2023 10.1297 16.6758C9.65881 16.2023 9.102 15.8229 8.48906 15.5578C8.95444 15.1329 9.2805 14.5773 9.42443 13.9638C9.56836 13.3502 9.52345 12.7076 9.29558 12.12C9.06772 11.5325 8.66755 11.0276 8.1476 10.6716C7.62765 10.3155 7.0122 10.125 6.38203 10.125C5.75186 10.125 5.13642 10.3155 4.61646 10.6716C4.09651 11.0276 3.69634 11.5325 3.46848 12.12C3.24062 12.7076 3.1957 13.3502 3.33964 13.9638C3.48357 14.5773 3.80962 15.1329 4.275 15.5578C3.42238 15.9248 2.68102 16.5091 2.125 17.2524C2.07575 17.318 2.03992 17.3927 2.01955 17.4722C1.99918 17.5517 1.99467 17.6345 2.00628 17.7157C2.01789 17.797 2.04539 17.8752 2.0872 17.9458C2.12902 18.0164 2.18434 18.0781 2.25 18.1274C2.31566 18.1766 2.39038 18.2124 2.46989 18.2328C2.5494 18.2532 2.63214 18.2577 2.71339 18.2461C2.79464 18.2345 2.87281 18.207 2.94343 18.1651C3.01406 18.1233 3.07575 18.068 3.125 18.0024C3.50341 17.4978 3.99409 17.0883 4.55819 16.8062C5.12229 16.5242 5.74432 16.3774 6.375 16.3774C7.00568 16.3774 7.6277 16.5242 8.1918 16.8062C8.75591 17.0883 9.24659 17.4978 9.625 18.0024C9.72457 18.1348 9.87269 18.2224 10.0368 18.2456C10.2009 18.2689 10.3675 18.2261 10.5 18.1266C10.5472 18.0914 10.5891 18.0496 10.6242 18.0024C11.0026 17.4978 11.4933 17.0883 12.0574 16.8062C12.6215 16.5242 13.2435 16.3774 13.8742 16.3774C14.5049 16.3774 15.1269 16.5242 15.691 16.8062C16.2551 17.0883 16.7458 17.4978 17.1242 18.0024C17.2238 18.135 17.3719 18.2226 17.5361 18.246C17.7003 18.2693 17.867 18.2265 17.9996 18.127C18.1322 18.0274 18.2198 17.8792 18.2432 17.7151C18.2666 17.5509 18.2238 17.3842 18.1242 17.2516C17.571 16.5099 16.8333 15.926 15.9844 15.5578ZM6.375 11.3774C6.74584 11.3774 7.10835 11.4873 7.41669 11.6933C7.72504 11.8994 7.96536 12.1922 8.10727 12.5348C8.24919 12.8774 8.28632 13.2544 8.21397 13.6181C8.14163 13.9819 7.96305 14.316 7.70083 14.5782C7.4386 14.8404 7.10451 15.019 6.74079 15.0913C6.37708 15.1637 6.00008 15.1265 5.65747 14.9846C5.31486 14.8427 5.02202 14.6024 4.81599 14.294C4.60997 13.9857 4.5 13.6232 4.5 13.2524C4.5 12.7551 4.69754 12.2782 5.04917 11.9265C5.40081 11.5749 5.87772 11.3774 6.375 11.3774ZM13.875 11.3774C14.2458 11.3774 14.6084 11.4873 14.9167 11.6933C15.225 11.8994 15.4654 12.1922 15.6073 12.5348C15.7492 12.8774 15.7863 13.2544 15.714 13.6181C15.6416 13.9819 15.463 14.316 15.2008 14.5782C14.9386 14.8404 14.6045 15.019 14.2408 15.0913C13.8771 15.1637 13.5001 15.1265 13.1575 14.9846C12.8149 14.8427 12.522 14.6024 12.316 14.294C12.11 13.9857 12 13.6232 12 13.2524C12 12.7551 12.1975 12.2782 12.5492 11.9265C12.9008 11.5749 13.3777 11.3774 13.875 11.3774Z" fill="#212022"/>
</g>
</svg>
