<svg width="20" height="21" viewBox="0 0 20 21" fill="currentColor" xmlns="http://www.w3.org/2000/svg">
    <g id="icon">
        <g id="Vector">
            <path fill-rule="evenodd" clip-rule="evenodd"
                  d="M8.86602 2C5.07638 2 2 5.07707 2 8.86757C2 12.6581 5.07638 15.7351 8.86602 15.7351C12.6557 15.7351 15.732 12.6581 15.732 8.86757C15.732 5.07707 12.6557 2 8.86602 2ZM8.86602 3.24865C11.9666 3.24865 14.4837 5.76633 14.4837 8.86757C14.4837 11.9688 11.9666 14.4865 8.86602 14.4865C5.76548 14.4865 3.24837 11.9688 3.24837 8.86757C3.24837 5.76633 5.76548 3.24865 8.86602 3.24865Z"
                  fill="currentColor"/>
            <path fill-rule="evenodd" clip-rule="evenodd"
                  d="M5.35959 8.24326L6.43474 6.09099C6.53851 5.88418 6.74839 5.75152 6.98013 5.74605C7.21106 5.74136 7.42642 5.86467 7.53877 6.06758L10.1354 10.7415L11.4516 8.5463C11.564 8.359 11.7676 8.2435 11.9869 8.2435H15.1078C15.4526 8.2435 15.732 8.52262 15.732 8.86757C15.732 9.21252 15.4526 9.49215 15.1078 9.49215H12.3404L10.6496 12.3109C10.535 12.5021 10.3266 12.6176 10.1043 12.6137C9.88111 12.6098 9.67748 12.4873 9.56902 12.2922L7.02235 7.70812L6.30375 9.14719C6.19764 9.35868 5.98151 9.49213 5.7451 9.49213H2.62418C2.27931 9.49213 2 9.21252 2 8.86757C2 8.52262 2.27931 8.24348 2.62418 8.24348L5.35959 8.24326Z"
                  fill="currentColor"/>
            <path fill-rule="evenodd" clip-rule="evenodd"
                  d="M13.1891 14.0714L16.9342 17.8174C17.1784 18.0609 17.5732 18.0609 17.8174 17.8174C18.0609 17.5731 18.0609 17.1774 17.8174 16.934L14.0723 13.188C13.8281 12.9445 13.4333 12.9445 13.1891 13.188C12.9457 13.4315 12.9457 13.8272 13.1891 14.0714Z"
                  fill="currentColor"/>
        </g>
    </g>
</svg>
