<svg width="20" height="20" viewBox="0 0 20 20" fill="none" xmlns="http://www.w3.org/2000/svg">
<g id="type=doubleArrowLeft">
<path id="Vector" d="M16.0669 15.8077C16.125 15.8657 16.171 15.9347 16.2024 16.0105C16.2339 16.0864 16.25 16.1677 16.25 16.2499C16.25 16.332 16.2339 16.4133 16.2024 16.4892C16.171 16.565 16.125 16.634 16.0669 16.692C16.0088 16.7501 15.9399 16.7962 15.864 16.8276C15.7881 16.859 15.7068 16.8752 15.6247 16.8752C15.5426 16.8752 15.4613 16.859 15.3854 16.8276C15.3095 16.7962 15.2406 16.7501 15.1825 16.692L8.93251 10.442C8.8744 10.384 8.8283 10.3151 8.79685 10.2392C8.7654 10.1633 8.74921 10.082 8.74921 9.99986C8.74921 9.91772 8.7654 9.8364 8.79685 9.76052C8.8283 9.68465 8.8744 9.61572 8.93251 9.55767L15.1825 3.30767C15.2998 3.1904 15.4588 3.12451 15.6247 3.12451C15.7906 3.12451 15.9496 3.1904 16.0669 3.30767C16.1842 3.42495 16.25 3.58401 16.25 3.74986C16.25 3.91571 16.1842 4.07477 16.0669 4.19205L10.2583 9.99986L16.0669 15.8077ZM4.00829 9.99986L9.81689 4.19205C9.93416 4.07477 10 3.91571 10 3.74986C10 3.58401 9.93416 3.42495 9.81689 3.30767C9.69961 3.1904 9.54055 3.12451 9.3747 3.12451C9.20885 3.12451 9.04979 3.1904 8.93251 3.30767L2.68251 9.55767C2.6244 9.61572 2.5783 9.68465 2.54685 9.76052C2.5154 9.8364 2.49921 9.91772 2.49921 9.99986C2.49921 10.082 2.5154 10.1633 2.54685 10.2392C2.5783 10.3151 2.6244 10.384 2.68251 10.442L8.93251 16.692C8.99058 16.7501 9.05952 16.7962 9.13539 16.8276C9.21126 16.859 9.29258 16.8752 9.3747 16.8752C9.45682 16.8752 9.53814 16.859 9.61401 16.8276C9.68988 16.7962 9.75882 16.7501 9.81689 16.692C9.87496 16.634 9.92102 16.565 9.95244 16.4892C9.98387 16.4133 10 16.332 10 16.2499C10 16.1677 9.98387 16.0864 9.95244 16.0105C9.92102 15.9347 9.87496 15.8657 9.81689 15.8077L4.00829 9.99986Z" fill="#212022"/>
</g>
</svg>
