<svg width="20" height="20" viewBox="0 0 20 20" fill="none" xmlns="http://www.w3.org/2000/svg">
<g id="type=doubleArrowRight">
<path id="Vector" d="M11.0675 10.4422L4.81753 16.6922C4.70026 16.8094 4.5412 16.8753 4.37535 16.8753C4.2095 16.8753 4.05044 16.8094 3.93316 16.6922C3.81588 16.5749 3.75 16.4158 3.75 16.25C3.75 16.0841 3.81588 15.9251 3.93316 15.8078L9.74175 9.99998L3.93316 4.19217C3.81588 4.07489 3.75 3.91583 3.75 3.74998C3.75 3.58413 3.81588 3.42507 3.93316 3.30779C4.05044 3.19052 4.2095 3.12463 4.37535 3.12463C4.5412 3.12463 4.70026 3.19052 4.81753 3.30779L11.0675 9.55779C11.1256 9.61584 11.1717 9.68477 11.2032 9.76064C11.2347 9.83652 11.2508 9.91785 11.2508 9.99998C11.2508 10.0821 11.2347 10.1634 11.2032 10.2393C11.1717 10.3152 11.1256 10.3841 11.0675 10.4422ZM17.3175 9.55779L11.0675 3.30779C10.9503 3.19052 10.7912 3.12463 10.6253 3.12463C10.4595 3.12463 10.3004 3.19052 10.1832 3.30779C10.0659 3.42507 10 3.58413 10 3.74998C10 3.91583 10.0659 4.07489 10.1832 4.19217L15.9918 9.99998L10.1832 15.8078C10.0659 15.9251 10 16.0841 10 16.25C10 16.4158 10.0659 16.5749 10.1832 16.6922C10.3004 16.8094 10.4595 16.8753 10.6253 16.8753C10.7912 16.8753 10.9503 16.8094 11.0675 16.6922L17.3175 10.4422C17.3756 10.3841 17.4217 10.3152 17.4532 10.2393C17.4847 10.1634 17.5008 10.0821 17.5008 9.99998C17.5008 9.91785 17.4847 9.83652 17.4532 9.76064C17.4217 9.68477 17.3756 9.61584 17.3175 9.55779Z" fill="#212022"/>
</g>
</svg>
