<svg width="24" height="270" viewBox="0 0 24 270" fill="none" xmlns="http://www.w3.org/2000/svg">
<path d="M14 23.8341C19.6754 22.8819 24 17.946 24 12C24 5.37258 18.6274 0 12 0C5.37258 0 0 5.37258 0 12C0 17.946 4.32457 22.8819 10 23.8341V268C10 269.105 10.8954 270 12 270C13.1046 270 14 269.105 14 268V23.8341Z" fill="#F7F3FF"/>
<path fill-rule="evenodd" clip-rule="evenodd" d="M13 22.9879L13.8345 22.8479C19.0363 21.9752 23 17.4495 23 12C23 5.92487 18.0751 1 12 1C5.92487 1 1 5.92487 1 12C1 17.4495 4.96374 21.9752 10.1655 22.8479L11 22.9879V268C11 268.552 11.4477 269 12 269C12.5523 269 13 268.552 13 268V22.9879ZM14 23.8341V268C14 269.105 13.1046 270 12 270C10.8954 270 10 269.105 10 268V23.8341C4.32457 22.8819 0 17.946 0 12C0 5.37258 5.37258 0 12 0C18.6274 0 24 5.37258 24 12C24 17.946 19.6754 22.8819 14 23.8341Z" fill="#7342DE"/>
<path d="M16.1 14.2308L14.6 15.7308C14.5296 15.8011 14.4342 15.8407 14.3347 15.8407C14.2352 15.8407 14.1397 15.8011 14.0694 15.7308C13.999 15.6604 13.9595 15.565 13.9595 15.4654C13.9595 15.3659 13.999 15.2705 14.0694 15.2001L14.9295 14.3404H8.33467C8.23521 14.3404 8.13983 14.3009 8.0695 14.2306C7.99918 14.1603 7.95967 14.0649 7.95967 13.9654C7.95967 13.866 7.99918 13.7706 8.0695 13.7003C8.13983 13.63 8.23521 13.5904 8.33467 13.5904H14.9295L14.0694 12.7308C13.999 12.6604 13.9595 12.565 13.9595 12.4654C13.9595 12.3659 13.999 12.2705 14.0694 12.2001C14.1397 12.1298 14.2352 12.0902 14.3347 12.0902C14.4342 12.0902 14.5296 12.1298 14.6 12.2001L16.1 13.7001C16.1348 13.735 16.1625 13.7763 16.1814 13.8218C16.2003 13.8674 16.21 13.9162 16.21 13.9654C16.21 14.0147 16.2003 14.0635 16.1814 14.109C16.1625 14.1546 16.1348 14.1959 16.1 14.2308ZM9.56936 11.2308C9.63972 11.3011 9.73516 11.3407 9.83467 11.3407C9.93418 11.3407 10.0296 11.3011 10.1 11.2308C10.1703 11.1604 10.2099 11.065 10.2099 10.9654C10.2099 10.8659 10.1703 10.7705 10.1 10.7001L9.23983 9.84044H15.8347C15.9341 9.84044 16.0295 9.80093 16.0998 9.73061C16.1702 9.66028 16.2097 9.5649 16.2097 9.46544C16.2097 9.36599 16.1702 9.2706 16.0998 9.20028C16.0295 9.12995 15.9341 9.09044 15.8347 9.09044H9.23983L10.1 8.23075C10.1703 8.16039 10.2099 8.06495 10.2099 7.96544C10.2099 7.86593 10.1703 7.7705 10.1 7.70013C10.0296 7.62977 9.93418 7.59023 9.83467 7.59023C9.73516 7.59023 9.63972 7.62977 9.56936 7.70013L8.06936 9.20013C8.03449 9.23496 8.00683 9.27632 7.98796 9.32184C7.96909 9.36736 7.95937 9.41616 7.95937 9.46544C7.95937 9.51472 7.96909 9.56352 7.98796 9.60905C8.00683 9.65457 8.03449 9.69593 8.06936 9.73076L9.56936 11.2308Z" fill="#7342DE"/>
</svg>
