<svg width="20" height="20" viewBox="0 0 20 20" fill="none" xmlns="http://www.w3.org/2000/svg">
<g id="type=image">
<path id="Vector" d="M8.64556 11.5281C8.5885 11.4424 8.51115 11.3721 8.42038 11.3235C8.3296 11.2748 8.22822 11.2494 8.12524 11.2494C8.02226 11.2494 7.92088 11.2748 7.83011 11.3235C7.73933 11.3721 7.66198 11.4424 7.60493 11.5281L5.97602 13.9727L5.21352 12.7867C5.15694 12.6987 5.07914 12.6262 4.98727 12.5761C4.89541 12.5259 4.79241 12.4996 4.68774 12.4996C4.58307 12.4996 4.48008 12.5259 4.38821 12.5761C4.29635 12.6262 4.21855 12.6987 4.16196 12.7867L1.34946 17.1617C1.28868 17.2561 1.25447 17.3652 1.25041 17.4774C1.24635 17.5896 1.2726 17.7009 1.3264 17.7994C1.3802 17.898 1.45956 17.9803 1.55614 18.0375C1.65272 18.0948 1.76295 18.125 1.87524 18.125H11.8752C11.9884 18.1251 12.0995 18.0944 12.1966 18.0363C12.2937 17.9782 12.3732 17.8948 12.4267 17.795C12.4801 17.6952 12.5054 17.5828 12.4999 17.4698C12.4944 17.3567 12.4584 17.2473 12.3956 17.1531L8.64556 11.5281ZM3.01977 16.875L4.68774 14.2805L5.44009 15.4523C5.4962 15.5397 5.57319 15.6117 5.6641 15.6618C5.75502 15.712 5.85699 15.7387 5.96081 15.7395C6.06463 15.7404 6.16703 15.7154 6.25875 15.6667C6.35048 15.6181 6.42864 15.5474 6.48618 15.4609L8.1268 13.0023L10.7073 16.875H3.01977ZM16.6916 6.43281L12.3166 2.05781C12.1995 1.94082 12.0408 1.87508 11.8752 1.875H4.37524C4.04372 1.875 3.72578 2.0067 3.49136 2.24112C3.25694 2.47554 3.12524 2.79348 3.12524 3.125V10.625C3.12524 10.7908 3.19109 10.9497 3.3083 11.0669C3.42551 11.1842 3.58448 11.25 3.75024 11.25C3.916 11.25 4.07497 11.1842 4.19218 11.0669C4.30939 10.9497 4.37524 10.7908 4.37524 10.625V3.125H11.2502V6.875C11.2502 7.04076 11.3161 7.19973 11.4333 7.31694C11.5505 7.43415 11.7095 7.5 11.8752 7.5H15.6252V16.875H15.0002C14.8345 16.875 14.6755 16.9408 14.5583 17.0581C14.4411 17.1753 14.3752 17.3342 14.3752 17.5C14.3752 17.6658 14.4411 17.8247 14.5583 17.9419C14.6755 18.0592 14.8345 18.125 15.0002 18.125H15.6252C15.9568 18.125 16.2747 17.9933 16.5091 17.7589C16.7435 17.5245 16.8752 17.2065 16.8752 16.875V6.875C16.8753 6.7929 16.8592 6.71159 16.8278 6.63572C16.7965 6.55985 16.7505 6.4909 16.6924 6.43281H16.6916ZM12.5002 4.00859L14.7416 6.25H12.5002V4.00859Z" fill="#212022"/>
</g>
</svg>
