<svg width="20" height="21" viewBox="0 0 20 21" fill="currentColor" xmlns="http://www.w3.org/2000/svg">
    <g id="icon">
        <g id="Vector">
            <path d="M17.6925 7.3708L13.005 2.6833C12.947 2.62519 12.878 2.57909 12.8021 2.54764C12.7263 2.51619 12.6449 2.5 12.5628 2.5C12.4807 2.5 12.3993 2.51619 12.3235 2.54764C12.2476 2.57909 12.1787 2.62519 12.1206 2.6833L2.02453 12.7794C1.36853 13.4354 1 14.3251 1 15.2528C1 16.1806 1.36853 17.0703 2.02453 17.7263C2.68053 18.3823 3.57025 18.7508 4.49797 18.7508C5.42569 18.7508 6.31541 18.3823 6.97141 17.7263L15.7128 8.98487L17.448 8.40674C17.5491 8.3731 17.64 8.31415 17.7119 8.2355C17.7838 8.15685 17.8345 8.06111 17.859 7.95737C17.8835 7.85364 17.881 7.74536 17.8519 7.64283C17.8228 7.5403 17.7679 7.44615 17.6925 7.3708ZM6.08703 16.8419C5.66298 17.2506 5.09546 17.4765 4.50656 17.4711C3.91765 17.4656 3.3544 17.2293 2.93796 16.8128C2.52152 16.3964 2.28516 15.8332 2.27973 15.2442C2.2743 14.6553 2.50022 14.0878 2.90891 13.6638L5.15891 11.4138C5.82063 11.1872 6.85813 11.1013 8.21125 11.8044C9.03938 12.2372 9.78781 12.4294 10.4425 12.4864L6.08703 16.8419ZM15.1777 7.84502C15.0855 7.87561 15.0018 7.92724 14.9331 7.9958L11.8417 11.0872C11.18 11.3138 10.1425 11.3997 8.78937 10.6966C7.96125 10.2638 7.21281 10.0716 6.55812 10.0146L12.5628 4.00909L16.0933 7.53955L15.1777 7.84502Z"
                  fill="currentColor"/>
            <path d="M16.8379 14.4574C15.8965 14.4574 15.1308 13.6918 15.1308 12.7543C15.1308 11.9926 16.0957 10.6333 16.3926 10.2347C16.5996 9.95343 17.0683 9.95343 17.2793 10.2347C17.5762 10.6331 18.541 11.9925 18.541 12.7543C18.5449 13.6957 17.7793 14.4574 16.8379 14.4574ZM16.8379 11.5356C16.4902 12.0786 16.2363 12.5786 16.2363 12.7544C16.2363 13.0864 16.5059 13.3559 16.8379 13.3559C17.1699 13.3559 17.4433 13.0864 17.4433 12.7544C17.4394 12.5786 17.1855 12.0786 16.8379 11.5356Z"
                  fill="currentColor"/>
        </g>
    </g>
</svg>
