<svg width="177" height="37" viewBox="0 0 177 37" fill="none" xmlns="http://www.w3.org/2000/svg">
<path d="M0.456 36V2.16H13.368C17.304 2.16 20.632 2.832 23.352 4.176C26.072 5.52 28.12 7.456 29.496 9.984C30.904 12.48 31.608 15.504 31.608 19.056C31.608 22.576 30.904 25.6 29.496 28.128C28.12 30.656 26.072 32.608 23.352 33.984C20.632 35.328 17.304 36 13.368 36H0.456ZM7.944 29.856H12.936C16.712 29.856 19.512 28.976 21.336 27.216C23.192 25.424 24.12 22.704 24.12 19.056C24.12 15.376 23.192 12.656 21.336 10.896C19.512 9.136 16.712 8.256 12.936 8.256H7.944V29.856ZM48.5273 36.528C45.9353 36.528 43.6793 36.016 41.7593 34.992C39.8713 33.936 38.3993 32.464 37.3433 30.576C36.3193 28.688 35.8073 26.432 35.8073 23.808C35.8073 21.216 36.3193 18.976 37.3433 17.088C38.3993 15.2 39.8713 13.744 41.7593 12.72C43.6793 11.696 45.9353 11.184 48.5273 11.184C51.1193 11.184 53.3753 11.696 55.2953 12.72C57.2153 13.744 58.6873 15.2 59.7113 17.088C60.7673 18.976 61.2953 21.216 61.2953 23.808C61.2953 26.432 60.7673 28.688 59.7113 30.576C58.6873 32.464 57.2153 33.936 55.2953 34.992C53.3753 36.016 51.1193 36.528 48.5273 36.528ZM48.5273 31.056C50.1913 31.056 51.5033 30.464 52.4633 29.28C53.4553 28.096 53.9513 26.272 53.9513 23.808C53.9513 21.344 53.4553 19.536 52.4633 18.384C51.5033 17.232 50.1913 16.656 48.5273 16.656C46.8633 16.656 45.5353 17.232 44.5433 18.384C43.5833 19.536 43.1033 21.344 43.1033 23.808C43.1033 26.272 43.5833 28.096 44.5433 29.28C45.5353 30.464 46.8633 31.056 48.5273 31.056ZM77.688 36.528C75.096 36.528 72.824 36.016 70.872 34.992C68.92 33.968 67.416 32.496 66.36 30.576C65.304 28.656 64.776 26.384 64.776 23.76C64.776 21.104 65.304 18.848 66.36 16.992C67.448 15.104 68.952 13.664 70.872 12.672C72.824 11.68 75.096 11.184 77.688 11.184C79.32 11.184 80.904 11.424 82.44 11.904C84.008 12.384 85.288 13.056 86.28 13.92L84.168 18.912C83.368 18.176 82.44 17.632 81.384 17.28C80.36 16.896 79.368 16.704 78.408 16.704C76.456 16.704 74.936 17.312 73.848 18.528C72.76 19.744 72.216 21.504 72.216 23.808C72.216 26.112 72.76 27.872 73.848 29.088C74.936 30.304 76.456 30.912 78.408 30.912C79.336 30.912 80.312 30.736 81.336 30.384C82.392 30.032 83.336 29.504 84.168 28.8L86.28 33.744C85.256 34.608 83.96 35.296 82.392 35.808C80.856 36.288 79.288 36.528 77.688 36.528Z" fill="#212022"/>
<path d="M90.8779 36V2.16H106.67C110.478 2.16 113.358 3.088 115.31 4.944C117.294 6.768 118.286 9.28 118.286 12.48C118.286 15.648 117.294 18.176 115.31 20.064C113.358 21.92 110.478 22.848 106.67 22.848H98.3659V36H90.8779ZM98.3659 17.04H105.71C107.502 17.04 108.83 16.64 109.694 15.84C110.59 15.04 111.038 13.92 111.038 12.48C111.038 11.04 110.59 9.936 109.694 9.168C108.83 8.368 107.502 7.968 105.71 7.968H98.3659V17.04ZM131.166 36.528C129.054 36.528 127.198 36.016 125.598 34.992C123.998 33.968 122.75 32.512 121.854 30.624C120.958 28.736 120.51 26.464 120.51 23.808C120.51 21.184 120.958 18.928 121.854 17.04C122.75 15.152 123.998 13.712 125.598 12.72C127.198 11.696 129.054 11.184 131.166 11.184C133.118 11.184 134.862 11.664 136.398 12.624C137.966 13.552 138.99 14.816 139.47 16.416H138.942L139.518 11.664H146.478C146.382 12.72 146.286 13.792 146.19 14.88C146.126 15.936 146.094 16.976 146.094 18V36H138.894L138.846 31.44H139.422C138.91 32.976 137.886 34.208 136.35 35.136C134.814 36.064 133.086 36.528 131.166 36.528ZM133.374 31.056C135.038 31.056 136.382 30.464 137.406 29.28C138.43 28.096 138.942 26.272 138.942 23.808C138.942 21.344 138.43 19.536 137.406 18.384C136.382 17.232 135.038 16.656 133.374 16.656C131.71 16.656 130.366 17.232 129.342 18.384C128.318 19.536 127.806 21.344 127.806 23.808C127.806 26.272 128.302 28.096 129.294 29.28C130.318 30.464 131.678 31.056 133.374 31.056ZM161.591 36.528C159.479 36.528 157.607 36.016 155.975 34.992C154.375 33.968 153.111 32.512 152.183 30.624C151.287 28.736 150.839 26.464 150.839 23.808C150.839 21.184 151.287 18.928 152.183 17.04C153.079 15.152 154.343 13.712 155.975 12.72C157.607 11.696 159.479 11.184 161.591 11.184C163.511 11.184 165.223 11.648 166.727 12.576C168.263 13.472 169.287 14.688 169.799 16.224H169.175V0.671997H176.423V36H169.271V31.248H169.895C169.383 32.848 168.359 34.128 166.823 35.088C165.287 36.048 163.543 36.528 161.591 36.528ZM163.751 31.056C165.415 31.056 166.759 30.464 167.783 29.28C168.807 28.096 169.319 26.272 169.319 23.808C169.319 21.344 168.807 19.536 167.783 18.384C166.759 17.232 165.415 16.656 163.751 16.656C162.087 16.656 160.727 17.232 159.671 18.384C158.647 19.536 158.135 21.344 158.135 23.808C158.135 26.272 158.647 28.096 159.671 29.28C160.727 30.464 162.087 31.056 163.751 31.056Z" fill="#7342DE"/>
</svg>
