<svg width="18" height="15" viewBox="0 0 18 15" fill="currentColor" xmlns="http://www.w3.org/2000/svg">
<path d="M16.6154 0H1.38462C1.01739 0 0.66521 0.158035 0.405544 0.43934C0.145879 0.720644 0 1.10218 0 1.5V13.5C0 13.8978 0.145879 14.2794 0.405544 14.5607C0.66521 14.842 1.01739 15 1.38462 15H16.6154C16.9826 15 17.3348 14.842 17.5945 14.5607C17.8541 14.2794 18 13.8978 18 13.5V1.5C18 1.10218 17.8541 0.720644 17.5945 0.43934C17.3348 0.158035 16.9826 0 16.6154 0ZM6.92308 9V6H11.0769V9H6.92308ZM11.0769 10.5V13.5H6.92308V10.5H11.0769ZM1.38462 6H5.53846V9H1.38462V6ZM6.92308 4.5V1.5H11.0769V4.5H6.92308ZM12.4615 6H16.6154V9H12.4615V6ZM16.6154 4.5H12.4615V1.5H16.6154V4.5ZM5.53846 1.5V4.5H1.38462V1.5H5.53846ZM1.38462 10.5H5.53846V13.5H1.38462V10.5ZM16.6154 13.5H12.4615V10.5H16.6154V13.5Z" fill="currentColor"/>
</svg>
