<svg width="20" height="20" viewBox="0 0 20 20" fill="none" xmlns="http://www.w3.org/2000/svg">
<g id="type=maximise">
<path id="Vector" d="M15.6875 4.375V4.3125H15.625H13.125C12.9758 4.3125 12.8327 4.25324 12.7273 4.14775C12.6218 4.04226 12.5625 3.89918 12.5625 3.75C12.5625 3.60082 12.6218 3.45774 12.7273 3.35225C12.8327 3.24676 12.9758 3.1875 13.125 3.1875L16.25 3.1875C16.3992 3.1875 16.5423 3.24676 16.6477 3.35225C16.7532 3.45774 16.8125 3.60082 16.8125 3.75V6.875C16.8125 7.02418 16.7532 7.16726 16.6477 7.27275C16.5423 7.37824 16.3992 7.4375 16.25 7.4375C16.1008 7.4375 15.9577 7.37824 15.8523 7.27275C15.7468 7.16726 15.6875 7.02418 15.6875 6.875V4.375ZM4.3125 15.625V15.6875H4.375H6.875C7.02418 15.6875 7.16726 15.7468 7.27275 15.8523C7.37824 15.9577 7.4375 16.1008 7.4375 16.25C7.4375 16.3992 7.37824 16.5423 7.27275 16.6477C7.16726 16.7532 7.02418 16.8125 6.875 16.8125H3.75C3.60082 16.8125 3.45774 16.7532 3.35225 16.6477C3.24676 16.5423 3.1875 16.3992 3.1875 16.25L3.1875 13.125C3.1875 12.9758 3.24676 12.8327 3.35225 12.7273C3.45774 12.6218 3.60082 12.5625 3.75 12.5625C3.89918 12.5625 4.04226 12.6218 4.14775 12.7273C4.25324 12.8327 4.3125 12.9758 4.3125 13.125V15.625ZM15.625 15.6875H15.6875V15.625V13.125C15.6875 12.9758 15.7468 12.8327 15.8523 12.7273C15.9577 12.6218 16.1008 12.5625 16.25 12.5625C16.3992 12.5625 16.5423 12.6218 16.6477 12.7273C16.7532 12.8327 16.8125 12.9758 16.8125 13.125V16.25C16.8125 16.3992 16.7532 16.5423 16.6477 16.6477C16.5423 16.7532 16.3992 16.8125 16.25 16.8125H13.125C12.9758 16.8125 12.8327 16.7532 12.7273 16.6477C12.6218 16.5423 12.5625 16.3992 12.5625 16.25C12.5625 16.1008 12.6218 15.9577 12.7273 15.8523C12.8327 15.7468 12.9758 15.6875 13.125 15.6875H15.625ZM4.375 4.3125H4.3125V4.375V6.875C4.3125 7.02418 4.25324 7.16726 4.14775 7.27275C4.04226 7.37824 3.89918 7.4375 3.75 7.4375C3.60082 7.4375 3.45774 7.37824 3.35225 7.27275C3.24676 7.16726 3.1875 7.02418 3.1875 6.875L3.1875 3.75C3.1875 3.60082 3.24676 3.45774 3.35225 3.35225C3.45774 3.24676 3.60082 3.1875 3.75 3.1875L6.875 3.1875C7.02418 3.1875 7.16726 3.24676 7.27275 3.35225C7.37824 3.45774 7.4375 3.60082 7.4375 3.75C7.4375 3.89918 7.37824 4.04226 7.27275 4.14775C7.16726 4.25324 7.02418 4.3125 6.875 4.3125H4.375Z" fill="#212022" stroke="#212022" stroke-width="0.125"/>
</g>
</svg>
