<svg width="20" height="20" viewBox="0 0 20 20" fill="none" xmlns="http://www.w3.org/2000/svg">
<g id="type=minimise">
<path id="Vector" d="M13.0729 6.875V6.92708H13.125H16.25C16.4019 6.92708 16.5477 6.98744 16.6551 7.09489C16.7626 7.20233 16.8229 7.34805 16.8229 7.5C16.8229 7.65195 16.7626 7.79767 16.6551 7.90511C16.5477 8.01256 16.4019 8.07292 16.25 8.07292L12.5 8.07292C12.3481 8.07292 12.2023 8.01256 12.0949 7.90511C11.9874 7.79767 11.9271 7.65195 11.9271 7.5V3.75C11.9271 3.59805 11.9874 3.45233 12.0949 3.34489C12.2023 3.23744 12.3481 3.17708 12.5 3.17708C12.6519 3.17708 12.7977 3.23744 12.9051 3.34489C13.0126 3.45233 13.0729 3.59805 13.0729 3.75V6.875ZM6.92708 13.125V13.0729H6.875H3.75C3.59805 13.0729 3.45233 13.0126 3.34489 12.9051C3.23744 12.7977 3.17708 12.6519 3.17708 12.5C3.17708 12.3481 3.23744 12.2023 3.34489 12.0949C3.45233 11.9874 3.59805 11.9271 3.75 11.9271H7.5C7.65195 11.9271 7.79767 11.9874 7.90511 12.0949C8.01256 12.2023 8.07292 12.3481 8.07292 12.5L8.07292 16.25C8.07292 16.4019 8.01256 16.5477 7.90511 16.6551C7.79767 16.7626 7.65195 16.8229 7.5 16.8229C7.34805 16.8229 7.20233 16.7626 7.09489 16.6551C6.98744 16.5477 6.92708 16.4019 6.92708 16.25V13.125ZM13.125 13.0729H13.0729V13.125V16.25C13.0729 16.4019 13.0126 16.5477 12.9051 16.6551C12.7977 16.7626 12.6519 16.8229 12.5 16.8229C12.3481 16.8229 12.2023 16.7626 12.0949 16.6551C11.9874 16.5477 11.9271 16.4019 11.9271 16.25V12.5C11.9271 12.3481 11.9874 12.2023 12.0949 12.0949C12.2023 11.9874 12.3481 11.9271 12.5 11.9271H16.25C16.4019 11.9271 16.5477 11.9874 16.6551 12.0949C16.7626 12.2023 16.8229 12.3481 16.8229 12.5C16.8229 12.6519 16.7626 12.7977 16.6551 12.9051C16.5477 13.0126 16.4019 13.0729 16.25 13.0729H13.125ZM6.875 6.92708H6.92708V6.875V3.75C6.92708 3.59805 6.98744 3.45233 7.09489 3.34489C7.20233 3.23744 7.34805 3.17708 7.5 3.17708C7.65195 3.17708 7.79767 3.23744 7.90511 3.34489C8.01256 3.45233 8.07292 3.59805 8.07292 3.75V7.5C8.07292 7.65195 8.01256 7.79767 7.90511 7.90511C7.79767 8.01256 7.65195 8.07292 7.5 8.07292H3.75C3.59805 8.07292 3.45233 8.01256 3.34489 7.90511C3.23744 7.79767 3.17708 7.65195 3.17708 7.5C3.17708 7.34805 3.23744 7.20233 3.34489 7.09489C3.45233 6.98744 3.59805 6.92708 3.75 6.92708H6.875Z" fill="#212022" stroke="#212022" stroke-width="0.104167"/>
</g>
</svg>
