<svg width="20" height="20" viewBox="0 0 20 20" fill="none" xmlns="http://www.w3.org/2000/svg">
<g id="type=more">
<path id="Vector" d="M10.875 10C10.875 10.1731 10.8237 10.3422 10.7275 10.4861C10.6314 10.63 10.4947 10.7422 10.3348 10.8084C10.175 10.8746 9.99903 10.8919 9.8293 10.8582C9.65956 10.8244 9.50365 10.7411 9.38128 10.6187C9.25891 10.4963 9.17558 10.3404 9.14181 10.1707C9.10805 10.001 9.12538 9.82504 9.19161 9.66515C9.25783 9.50527 9.36998 9.36861 9.51388 9.27246C9.65777 9.17632 9.82694 9.125 10 9.125C10.2321 9.125 10.4546 9.21719 10.6187 9.38128C10.7828 9.54538 10.875 9.76794 10.875 10ZM14.8264 9.27246C14.9703 9.17632 15.1394 9.125 15.3125 9.125C15.5446 9.125 15.7671 9.21719 15.9312 9.38128C16.0953 9.54538 16.1875 9.76794 16.1875 10C16.1875 10.1731 16.1362 10.3422 16.04 10.4861C15.9439 10.63 15.8072 10.7422 15.6473 10.8084C15.4875 10.8746 15.3115 10.8919 15.1418 10.8582C14.9721 10.8244 14.8162 10.7411 14.6938 10.6187C14.5714 10.4963 14.4881 10.3404 14.4543 10.1707C14.4206 10.001 14.4379 9.82504 14.5041 9.66515C14.5703 9.50527 14.6825 9.36861 14.8264 9.27246ZM4.20138 9.27246C4.34527 9.17632 4.51444 9.125 4.6875 9.125C4.91957 9.125 5.14212 9.21719 5.30622 9.38128C5.47031 9.54538 5.5625 9.76794 5.5625 10C5.5625 10.1731 5.51118 10.3422 5.41504 10.4861C5.31889 10.63 5.18223 10.7422 5.02235 10.8084C4.86246 10.8746 4.68653 10.8919 4.5168 10.8582C4.34706 10.8244 4.19115 10.7411 4.06878 10.6187C3.94641 10.4963 3.86308 10.3404 3.82931 10.1707C3.79555 10.001 3.81288 9.82504 3.87911 9.66515C3.94533 9.50527 4.05748 9.36861 4.20138 9.27246Z" fill="#212022" stroke="#212022" stroke-width="0.125"/>
</g>
</svg>
