<svg width="20" height="21" viewBox="0 0 20 21" fill="none" xmlns="http://www.w3.org/2000/svg">
<g id="icon">
<path id="Vector" d="M16.9956 3.71867C16.2153 2.93837 15.157 2.5 14.0534 2.5C12.9499 2.5 11.8916 2.93837 11.1113 3.71867L3.18157 11.6476C2.41758 12.4312 1.9931 13.4843 2.00008 14.5788C2.00707 15.6732 2.44497 16.7208 3.21891 17.4946C3.99284 18.2684 5.0405 18.7062 6.13492 18.713C7.22934 18.7199 8.28239 18.2953 9.06595 17.5312L16.9964 9.60226C17.7754 8.82136 18.2128 7.76333 18.2127 6.66031C18.2125 5.55728 17.7748 4.49937 16.9956 3.71867ZM8.18235 16.6476C7.63648 17.1936 6.89609 17.5003 6.12404 17.5004C5.35199 17.5005 4.61153 17.1938 4.06556 16.648C3.51958 16.1021 3.21282 15.3617 3.21274 14.5897C3.21267 13.8176 3.5193 13.0771 4.06517 12.5312L7.58782 9.00851L11.705 13.1249L8.18235 16.6476ZM16.112 8.71867L12.5878 12.2413L8.4722 8.12492L11.9956 4.60226C12.5437 4.06689 13.2807 3.76915 14.0468 3.77363C14.8129 3.77811 15.5464 4.08443 16.0881 4.62618C16.6299 5.16792 16.9362 5.90139 16.9407 6.66751C16.9452 7.43364 16.6474 8.17064 16.112 8.71867ZM14.9066 7.05773C14.9647 7.11578 15.0108 7.18471 15.0422 7.26058C15.0737 7.33646 15.0899 7.41779 15.0899 7.49992C15.0899 7.58206 15.0737 7.66338 15.0422 7.73926C15.0108 7.81513 14.9647 7.88406 14.9066 7.94211L13.0316 9.81711C12.9735 9.87513 12.9046 9.92114 12.8287 9.95252C12.7529 9.9839 12.6716 10 12.5895 9.99999C12.5074 9.99996 12.4261 9.98375 12.3503 9.95231C12.2745 9.92086 12.2056 9.87479 12.1476 9.81672C12.0896 9.75865 12.0436 9.68972 12.0122 9.61387C11.9808 9.53802 11.9647 9.45673 11.9647 9.37464C11.9647 9.29256 11.9809 9.21128 12.0124 9.13546C12.0438 9.05964 12.0899 8.99075 12.148 8.93273L14.023 7.05773C14.1402 6.94061 14.2991 6.87482 14.4648 6.87482C14.6305 6.87482 14.7894 6.94061 14.9066 7.05773Z" fill="#7342DE"/>
<circle id="Ellipse 47" cx="17" cy="5" r="2.5" fill="#FC5555"/>
</g>
</svg>
