<svg width="20" height="20" viewBox="0 0 20 20" fill="currentColor" xmlns="http://www.w3.org/2000/svg">
<g id="type=noAccess">
<path id="Vector" d="M16.6667 7H14V5C14 3.93913 13.5786 2.92172 12.8284 2.17157C12.0783 1.42143 11.0609 1 10 1C8.93913 1 7.92172 1.42143 7.17157 2.17157C6.42143 2.92172 6 3.93913 6 5V7H3.33333C2.97971 7 2.64057 7.14048 2.39052 7.39052C2.14048 7.64057 2 7.97971 2 8.33333V17.6667C2 18.0203 2.14048 18.3594 2.39052 18.6095C2.64057 18.8595 2.97971 19 3.33333 19H16.6667C17.0203 19 17.3594 18.8595 17.6095 18.6095C17.8595 18.3594 18 18.0203 18 17.6667V8.33333C18 7.97971 17.8595 7.64057 17.6095 7.39052C17.3594 7.14048 17.0203 7 16.6667 7ZM7.33333 5C7.33333 4.29276 7.61428 3.61448 8.11438 3.11438C8.61448 2.61428 9.29276 2.33333 10 2.33333C10.7072 2.33333 11.3855 2.61428 11.8856 3.11438C12.3857 3.61448 12.6667 4.29276 12.6667 5V7H7.33333V5ZM16.6667 17.6667H3.33333V8.33333H16.6667V17.6667ZM11 13C11 13.1978 10.9414 13.3911 10.8315 13.5556C10.7216 13.72 10.5654 13.8482 10.3827 13.9239C10.2 13.9996 9.99889 14.0194 9.80491 13.9808C9.61093 13.9422 9.43275 13.847 9.29289 13.7071C9.15304 13.5673 9.0578 13.3891 9.01921 13.1951C8.98063 13.0011 9.00043 12.8 9.07612 12.6173C9.15181 12.4346 9.27998 12.2784 9.44443 12.1685C9.60888 12.0587 9.80222 12 10 12C10.2652 12 10.5196 12.1054 10.7071 12.2929C10.8946 12.4804 11 12.7348 11 13Z" fill="currentColor"/>
</g>
</svg>
