<svg width="20" height="20" viewBox="0 0 20 20" fill="currentColor" xmlns="http://www.w3.org/2000/svg">
<g id="type=noConnection">
<path id="Vector" d="M18.8046 7.19521C18.8666 7.25715 18.9157 7.33068 18.9492 7.4116C18.9827 7.49253 19 7.57927 19 7.66686C19 7.75445 18.9827 7.84119 18.9492 7.92211C18.9157 8.00304 18.8666 8.07657 18.8046 8.13851C18.7427 8.20045 18.6692 8.24958 18.5882 8.2831C18.5073 8.31662 18.4206 8.33387 18.333 8.33387C18.2454 8.33387 18.1587 8.31662 18.0777 8.2831C17.9968 8.24958 17.9233 8.20045 17.8613 8.13851L16.3331 6.6094L14.8048 8.13851C14.6797 8.2636 14.51 8.33387 14.3331 8.33387C14.1562 8.33387 13.9866 8.2636 13.8615 8.13851C13.7364 8.01342 13.6661 7.84376 13.6661 7.66686C13.6661 7.48996 13.7364 7.3203 13.8615 7.19521L15.3906 5.66694L13.8615 4.13866C13.7996 4.07672 13.7504 4.00319 13.7169 3.92227C13.6834 3.84134 13.6661 3.75461 13.6661 3.66701C13.6661 3.57942 13.6834 3.49268 13.7169 3.41176C13.7504 3.33083 13.7996 3.2573 13.8615 3.19536C13.9866 3.07027 14.1562 3 14.3331 3C14.4207 3 14.5075 3.01725 14.5884 3.05077C14.6693 3.08429 14.7429 3.13343 14.8048 3.19536L16.3331 4.72447L17.8613 3.19536C17.9233 3.13343 17.9968 3.08429 18.0777 3.05077C18.1587 3.01725 18.2454 3 18.333 3C18.4206 3 18.5073 3.01725 18.5882 3.05077C18.6692 3.08429 18.7427 3.13343 18.8046 3.19536C18.8666 3.2573 18.9157 3.33083 18.9492 3.41176C18.9827 3.49268 19 3.57942 19 3.66701C19 3.75461 18.9827 3.84134 18.9492 3.92227C18.9157 4.00319 18.8666 4.07672 18.8046 4.13866L17.2755 5.66694L18.8046 7.19521ZM10.3333 14.9999C10.1355 14.9999 9.94219 15.0586 9.77774 15.1684C9.6133 15.2783 9.48513 15.4345 9.40945 15.6172C9.33376 15.7999 9.31396 16.001 9.35254 16.195C9.39113 16.3889 9.48637 16.5671 9.62621 16.707C9.76606 16.8468 9.94424 16.942 10.1382 16.9806C10.3322 17.0192 10.5332 16.9994 10.716 16.9237C10.8987 16.848 11.0549 16.7199 11.1647 16.5554C11.2746 16.391 11.3333 16.1976 11.3333 15.9999C11.3333 15.7347 11.2279 15.4803 11.0404 15.2928C10.8528 15.1053 10.5985 14.9999 10.3333 14.9999ZM14.059 12.2109C12.9761 11.4239 11.6719 11 10.3333 11C8.99468 11 7.69045 11.4239 6.6076 12.2109C6.46461 12.3149 6.36883 12.4716 6.34132 12.6463C6.31382 12.821 6.35685 12.9995 6.46094 13.1425C6.56503 13.2855 6.72167 13.3813 6.89638 13.4088C7.0711 13.4363 7.24958 13.3932 7.39257 13.2891C8.24714 12.6677 9.27663 12.3329 10.3333 12.3329C11.39 12.3329 12.4194 12.6677 13.274 13.2891C13.3448 13.3407 13.4251 13.3778 13.5102 13.3983C13.5953 13.4188 13.6837 13.4224 13.7702 13.4088C13.8567 13.3951 13.9397 13.3646 14.0144 13.3189C14.0891 13.2732 14.1541 13.2133 14.2056 13.1425C14.2572 13.0717 14.2943 12.9914 14.3148 12.9063C14.3353 12.8211 14.3389 12.7328 14.3253 12.6463C14.3116 12.5598 14.2811 12.4768 14.2354 12.4021C14.1897 12.3274 14.1298 12.2624 14.059 12.2109ZM11.6024 4.39448C11.6908 4.40542 11.7804 4.39854 11.8661 4.37425C11.9518 4.34996 12.0317 4.30876 12.1012 4.25308C12.1707 4.19739 12.2283 4.12835 12.2706 4.05003C12.313 3.97171 12.3392 3.8857 12.3478 3.79707C12.3564 3.70845 12.3471 3.619 12.3206 3.53401C12.294 3.44903 12.2507 3.37022 12.1932 3.30225C12.1356 3.23428 12.0651 3.17853 11.9857 3.13827C11.9062 3.09801 11.8196 3.07408 11.7307 3.06787C11.2699 3.02287 10.7991 3.00037 10.3333 3.00037C7.0192 3.00247 3.80781 4.15066 1.24364 6.25025C1.17596 6.30584 1.11989 6.37422 1.07863 6.45148C1.03737 6.52874 1.01174 6.61337 1.00319 6.70053C0.994635 6.7877 1.00334 6.8757 1.0288 6.9595C1.05425 7.04331 1.09597 7.12128 1.15156 7.18896C1.20715 7.25664 1.27553 7.31271 1.35279 7.35397C1.43005 7.39523 1.51468 7.42086 1.60185 7.42941C1.77789 7.44668 1.95358 7.39331 2.09027 7.28104C4.41542 5.37665 7.3278 4.3353 10.3333 4.33365C10.7566 4.33365 11.1833 4.35449 11.6024 4.39448ZM11.5757 8.41683C11.75 8.43904 11.926 8.39158 12.0654 8.28476C12.2049 8.17794 12.2965 8.0204 12.3205 7.84637C12.3444 7.67235 12.2987 7.49591 12.1932 7.35541C12.0878 7.21491 11.9312 7.1217 11.7574 7.09605C11.2855 7.03151 10.8096 6.9995 10.3333 7.00022C8.0028 6.99107 5.73907 7.77809 3.91687 9.23097C3.80955 9.31742 3.73166 9.43501 3.69392 9.56756C3.65618 9.7001 3.66044 9.84109 3.70613 9.97111C3.75182 10.1011 3.83667 10.2138 3.94903 10.2936C4.06138 10.3734 4.19571 10.4164 4.33352 10.4168C4.48481 10.4178 4.63189 10.3669 4.75017 10.2726C6.33621 9.00951 8.30578 8.32546 10.3333 8.3335C10.7489 8.33282 11.164 8.36066 11.5757 8.41683Z" fill="currentColor"/>
</g>
</svg>
