<svg width="20" height="20" viewBox="0 0 20 20" fill="none" xmlns="http://www.w3.org/2000/svg">
<g id="type=patientRemoval">
<path id="Vector" d="M19.7498 11.1281C19.7498 11.2939 19.684 11.4529 19.5667 11.5701C19.4495 11.6873 19.2906 11.7531 19.1248 11.7531H15.3748C15.209 11.7531 15.0501 11.6873 14.9329 11.5701C14.8156 11.4529 14.7498 11.2939 14.7498 11.1281C14.7498 10.9624 14.8156 10.8034 14.9329 10.6862C15.0501 10.569 15.209 10.5031 15.3748 10.5031H19.1248C19.2906 10.5031 19.4495 10.569 19.5667 10.6862C19.684 10.8034 19.7498 10.9624 19.7498 11.1281ZM15.2287 15.7258C15.3354 15.8528 15.3873 16.017 15.3729 16.1823C15.3586 16.3475 15.2792 16.5003 15.1521 16.607C15.0251 16.7137 14.8609 16.7656 14.6957 16.7513C14.5304 16.7369 14.3776 16.6575 14.2709 16.5305C12.699 14.6586 10.5381 13.6281 8.1873 13.6281C5.83652 13.6281 3.67558 14.6586 2.1037 16.5305C1.997 16.6574 1.84424 16.7367 1.67905 16.751C1.51386 16.7653 1.34975 16.7133 1.22284 16.6066C1.09593 16.4999 1.01661 16.3472 1.00233 16.182C0.988041 16.0168 1.03996 15.8527 1.14667 15.7258C2.31386 14.3367 3.76542 13.35 5.3787 12.8219C4.39894 12.2116 3.64458 11.2989 3.22975 10.2218C2.81491 9.14464 2.76218 7.9617 3.07952 6.85192C3.39687 5.74214 4.06702 4.76591 4.9886 4.07092C5.91018 3.37593 7.03304 3 8.1873 3C9.34156 3 10.4644 3.37593 11.386 4.07092C12.3076 4.76591 12.9777 5.74214 13.2951 6.85192C13.6124 7.9617 13.5597 9.14464 13.1448 10.2218C12.73 11.2989 11.9757 12.2116 10.9959 12.8219C12.6092 13.35 14.0607 14.3367 15.2287 15.7258ZM8.1873 12.3781C8.99078 12.3781 9.77623 12.1399 10.4443 11.6935C11.1124 11.2471 11.6331 10.6126 11.9406 9.87028C12.248 9.12795 12.3285 8.31112 12.1717 7.52307C12.015 6.73502 11.6281 6.01115 11.0599 5.443C10.4918 4.87485 9.7679 4.48794 8.97985 4.33118C8.1918 4.17443 7.37497 4.25488 6.63265 4.56236C5.89032 4.86984 5.25585 5.39055 4.80945 6.05862C4.36306 6.7267 4.1248 7.51214 4.1248 8.31562C4.12604 9.39269 4.55445 10.4253 5.31605 11.1869C6.07764 11.9485 7.11024 12.3769 8.1873 12.3781Z" fill="#212022"/>
</g>
</svg>
