<svg width="20" height="20" viewBox="0 0 20 20" fill="currentColor" xmlns="http://www.w3.org/2000/svg">
    <g id="type=pen">
        <path id="Vector" fill-rule="evenodd" clip-rule="evenodd"
              d="M14.268 2.24061L17.7586 5.73201C17.8747 5.84809 17.9668 5.9859 18.0296 6.13758C18.0925 6.28925 18.1248 6.45182 18.1248 6.616C18.1248 6.78017 18.0925 6.94274 18.0296 7.09442C17.9668 7.24609 17.8747 7.3839 17.7586 7.49998L8.12501 17.1336C8.00935 17.2502 7.87168 17.3426 7.71999 17.4055C7.5683 17.4684 7.40563 17.5005 7.24141 17.5H3.75001C3.41849 17.5 3.10054 17.3683 2.86612 17.1339C2.6317 16.8994 2.50001 16.5815 2.50001 16.25V12.7586C2.49948 12.5944 2.5316 12.4317 2.59451 12.28C2.65741 12.1283 2.74983 11.9906 2.86641 11.875L12.5 2.24061C12.6161 2.1245 12.7539 2.0324 12.9056 1.96957C13.0572 1.90673 13.2198 1.87439 13.384 1.87439C13.5482 1.87439 13.7107 1.90673 13.8624 1.96957C14.0141 2.0324 14.1519 2.1245 14.268 2.24061ZM3.75001 16.25H7.24141L14.1164 9.37498L15 8.49061L16.875 6.61561L13.3836 3.12498L11.5086 4.99998L10.625 5.88358L3.75001 12.7586V16.25Z"
              fill="currentColor"/>
    </g>
</svg>
