<svg width="20" height="20" viewBox="0 0 24 16" fill="currentColor" xmlns="http://www.w3.org/2000/svg">
<path d="M10.9921 10.8034C11.9973 10.1342 12.7605 9.15927 13.1687 8.0228C13.577 6.88633 13.6087 5.64865 13.2591 4.49278C12.9095 3.33691 12.1973 2.32422 11.2276 1.60447C10.258 0.884707 9.0825 0.496094 7.87492 0.496094C6.66735 0.496094 5.49184 0.884707 4.52221 1.60447C3.55258 2.32422 2.84032 3.33691 2.49076 4.49278C2.1412 5.64865 2.17288 6.88633 2.58114 8.0228C2.9894 9.15927 3.75255 10.1342 4.75774 10.8034C2.93945 11.4735 1.38659 12.7137 0.330862 14.3387C0.275377 14.4212 0.236837 14.5138 0.217482 14.6113C0.198127 14.7088 0.198344 14.8092 0.218119 14.9066C0.237895 15.004 0.276835 15.0965 0.332676 15.1787C0.388516 15.2609 0.460144 15.3313 0.543396 15.3856C0.626647 15.4399 0.719861 15.4771 0.81762 15.495C0.915378 15.513 1.01573 15.5113 1.11285 15.4902C1.20996 15.469 1.3019 15.4287 1.38332 15.3717C1.46473 15.3147 1.53401 15.2421 1.58711 15.1581C2.2681 14.1107 3.19995 13.25 4.29802 12.6542C5.3961 12.0583 6.62562 11.7463 7.87492 11.7463C9.12423 11.7463 10.3538 12.0583 11.4518 12.6542C12.5499 13.25 13.4817 14.1107 14.1627 15.1581C14.2727 15.3216 14.4427 15.4352 14.6358 15.4744C14.8289 15.5136 15.0297 15.4752 15.1947 15.3676C15.3598 15.2599 15.4758 15.0916 15.5178 14.8991C15.5598 14.7066 15.5243 14.5053 15.419 14.3387C14.3633 12.7137 12.8104 11.4735 10.9921 10.8034ZM3.74992 6.12338C3.74992 5.30753 3.99185 4.51 4.44511 3.83165C4.89837 3.1533 5.54261 2.62458 6.29636 2.31237C7.0501 2.00016 7.8795 1.91847 8.67967 2.07764C9.47984 2.2368 10.2148 2.62967 10.7917 3.20656C11.3686 3.78345 11.7615 4.51846 11.9207 5.31863C12.0798 6.1188 11.9981 6.9482 11.6859 7.70195C11.3737 8.45569 10.845 9.09993 10.1667 9.55319C9.4883 10.0064 8.69077 10.2484 7.87492 10.2484C6.78129 10.2471 5.7328 9.81214 4.95948 9.03882C4.18616 8.2655 3.75117 7.21701 3.74992 6.12338ZM23.4506 15.3765C23.284 15.4851 23.081 15.5232 22.8864 15.4822C22.6918 15.4412 22.5214 15.3246 22.4127 15.1581C21.7326 14.11 20.8008 13.249 19.7025 12.6534C18.6042 12.0578 17.3743 11.7467 16.1249 11.7484C15.926 11.7484 15.7352 11.6694 15.5946 11.5287C15.4539 11.3881 15.3749 11.1973 15.3749 10.9984C15.3749 10.7995 15.4539 10.6087 15.5946 10.468C15.7352 10.3274 15.926 10.2484 16.1249 10.2484C16.7324 10.2478 17.3322 10.1131 17.8816 9.8538C18.431 9.59452 18.9163 9.21712 19.3029 8.74854C19.6895 8.27996 19.9678 7.73178 20.118 7.14317C20.2682 6.55455 20.2865 5.94003 20.1716 5.34351C20.0568 4.747 19.8116 4.18321 19.4536 3.69244C19.0956 3.20166 18.6337 2.79601 18.1007 2.50447C17.5678 2.21293 16.977 2.0427 16.3707 2.00594C15.7643 1.96918 15.1573 2.06679 14.5931 2.29181C14.501 2.33158 14.402 2.35251 14.3018 2.35336C14.2016 2.35421 14.1022 2.33496 14.0095 2.29675C13.9169 2.25853 13.8328 2.20214 13.7623 2.13089C13.6918 2.05964 13.6363 1.97499 13.5991 1.88193C13.5619 1.78887 13.5437 1.68929 13.5456 1.58908C13.5475 1.48887 13.5695 1.39006 13.6102 1.29849C13.651 1.20691 13.7097 1.12444 13.7828 1.05593C13.856 0.987423 13.9421 0.934275 14.0362 0.899626C15.3275 0.384611 16.7639 0.366078 18.0681 0.847601C19.3723 1.32912 20.452 2.27658 21.0989 3.5072C21.7458 4.73782 21.914 6.1644 21.5711 7.51174C21.2283 8.85907 20.3986 10.0317 19.2421 10.8034C21.0604 11.4735 22.6133 12.7137 23.669 14.3387C23.7776 14.5053 23.8156 14.7082 23.7747 14.9028C23.7337 15.0975 23.6171 15.2678 23.4506 15.3765Z" fill="currentColor"/>
</svg>
