<svg width="20" height="20" viewBox="0 0 20 20" fill="none" xmlns="http://www.w3.org/2000/svg">
<g id="type=pinch">
<g id="Vector">
<path d="M16.1764 9.97873C15.8226 9.97873 15.4689 10.0672 15.1545 10.2342C15.0562 9.93942 14.9088 9.67412 14.7025 9.44812C14.4961 9.22212 14.2406 9.04526 13.9655 8.91752C13.6806 8.79961 13.3858 8.74065 13.0713 8.74065C12.7667 8.74065 12.4621 8.81926 12.187 8.947V6.58875C12.187 6.01884 11.961 5.46858 11.5581 5.06572C11.1553 4.66285 10.605 4.43685 10.0351 4.43685C9.46519 4.43685 8.91493 4.66285 8.51206 5.06572C8.10919 5.46858 7.88319 6.01884 7.88319 6.58875V12.73L7.58841 12.2584C7.30346 11.7671 6.83181 11.4035 6.28155 11.2659C5.73129 11.1185 5.14173 11.1972 4.65043 11.4821C4.15913 11.7671 3.79556 12.2387 3.658 12.789C3.51061 13.3392 3.58922 13.9288 3.87417 14.4201L6.12433 18.2621C6.16364 18.3407 6.21277 18.3996 6.28155 18.4586C6.35033 18.5077 6.41911 18.5568 6.49772 18.5765C6.57633 18.5961 6.66476 18.606 6.74337 18.5961C6.82198 18.5863 6.91042 18.5568 6.9792 18.5175C7.04798 18.4782 7.11676 18.4193 7.16589 18.3505C7.21502 18.2817 7.25433 18.2031 7.27398 18.1245C7.29363 18.0459 7.29363 17.9575 7.27398 17.8788C7.25433 17.8002 7.22485 17.7216 7.18554 17.6528L4.93538 13.8109C4.87643 13.7028 4.8273 13.5849 4.81747 13.467C4.79782 13.3491 4.80764 13.2213 4.83712 13.1034C4.8666 12.9855 4.92556 12.8774 4.99434 12.7791C5.07295 12.6809 5.16138 12.6023 5.26947 12.5433C5.37755 12.4844 5.49547 12.4451 5.61338 12.4254C5.73129 12.4058 5.85903 12.4254 5.97694 12.4549C6.09485 12.4844 6.20294 12.5433 6.3012 12.6219C6.39946 12.7005 6.47807 12.789 6.53703 12.8971V12.9167L7.98145 15.216C8.05024 15.3339 8.15832 15.4125 8.28606 15.4616C8.4138 15.5108 8.55136 15.5206 8.6791 15.4813C8.80684 15.442 8.92475 15.3634 9.00336 15.2553C9.08197 15.1472 9.1311 15.0195 9.1311 14.8819V6.59858C9.1311 6.35293 9.22936 6.1171 9.3964 5.95006C9.57327 5.77319 9.79927 5.68476 10.0449 5.68476C10.2906 5.68476 10.5264 5.78302 10.6934 5.95006C10.8703 6.12693 10.9587 6.35293 10.9587 6.59858V11.8162C10.9587 11.9832 11.0275 12.1306 11.1356 12.2485C11.2535 12.3665 11.4107 12.4254 11.568 12.4254C11.7252 12.4254 11.8824 12.3566 12.0003 12.2485C12.1182 12.1306 12.1772 11.9734 12.1772 11.8162V10.8925C12.1772 10.6469 12.2754 10.4111 12.4425 10.244C12.6193 10.0672 12.8453 9.97873 13.091 9.97873C13.3366 9.97873 13.5725 10.077 13.7395 10.244C13.9164 10.4209 14.0048 10.6469 14.0048 10.8925V12.4254C14.0048 12.5924 14.0736 12.7398 14.1817 12.8578C14.2996 12.9757 14.4568 13.0346 14.614 13.0346C14.7712 13.0346 14.9285 12.9658 15.0464 12.8578C15.1643 12.7398 15.2232 12.5826 15.2232 12.4254V12.1208C15.2232 11.8751 15.3215 11.6393 15.4885 11.4723C15.6654 11.2954 15.8914 11.207 16.1371 11.207C16.3827 11.207 16.6185 11.3052 16.7856 11.4723C16.9625 11.6492 17.0509 11.8751 17.0509 12.1208V14.8819C17.0509 16.5425 16.5105 17.6725 16.5006 17.6823C16.4318 17.8297 16.4122 17.9968 16.4712 18.154C16.5203 18.3112 16.6382 18.4389 16.7758 18.5077C16.8642 18.547 16.9526 18.5765 17.0509 18.5765C17.1688 18.5765 17.2769 18.547 17.3751 18.4881C17.4734 18.4291 17.552 18.3407 17.6011 18.2424C17.6306 18.1835 18.2791 16.8569 18.2791 14.9016V12.1405C18.2791 11.8555 18.2202 11.5804 18.1121 11.3151C18.004 11.0498 17.8468 10.8139 17.6503 10.6174C17.4538 10.4209 17.2179 10.2637 16.9526 10.1556C16.6873 10.0475 16.4122 9.98855 16.1272 9.98855L16.1764 9.97873Z" fill="#212022"/>
<path d="M7.17572 2.41269L7.5098 4.18138C7.5098 4.18138 7.5098 4.25998 7.49015 4.28946C7.4705 4.31894 7.44102 4.33859 7.40172 4.34842C7.36241 4.34842 7.32311 4.34842 7.29363 4.32877C7.26415 4.30911 7.2445 4.27964 7.23468 4.24033L6.96937 2.80573L5.40703 5.08537C5.40703 5.08537 5.3579 5.1345 5.3186 5.14433C5.27929 5.14433 5.23999 5.14433 5.21051 5.12467C5.18103 5.10502 5.16138 5.07554 5.15156 5.03624C5.15156 4.99694 5.15156 4.95763 5.17121 4.92815L6.73355 2.64852L5.29895 2.91382C5.29895 2.91382 5.22034 2.91382 5.19086 2.89417C5.16138 2.87452 5.14173 2.84504 5.1319 2.80573C5.1319 2.76643 5.1319 2.72713 5.15156 2.69765C5.17121 2.66817 5.20069 2.64852 5.23999 2.63869L7.00868 2.30461C7.00868 2.30461 7.04798 2.30461 7.06763 2.30461C7.08728 2.30461 7.10694 2.31443 7.11676 2.32426C7.13641 2.33408 7.14624 2.34391 7.15607 2.36356C7.16589 2.38321 7.17572 2.39304 7.17572 2.41269Z" fill="#212022"/>
<path d="M5.28912 5.41945C5.21051 5.41945 5.12208 5.38998 5.05329 5.34085C4.96486 5.28189 4.89608 5.18363 4.87643 5.06572C4.85677 4.95763 4.87643 4.83972 4.94521 4.75129L6.12433 3.03173L5.3579 3.17912C5.24982 3.19877 5.1319 3.17912 5.04347 3.11034C4.95503 3.05138 4.88625 2.9433 4.8666 2.83521C4.84695 2.72713 4.8666 2.60921 4.93538 2.52078C4.99434 2.43234 5.0926 2.36356 5.20069 2.34391L7.0185 2H7.12659C7.18554 2.01965 7.23467 2.04913 7.2838 2.07861L7.39189 2.19652C7.42137 2.24565 7.44102 2.29478 7.45085 2.35374L7.78493 4.12242C7.80459 4.23051 7.78493 4.34842 7.71615 4.43685C7.65719 4.52529 7.54911 4.59407 7.44102 4.61372C7.33294 4.63337 7.21502 4.61372 7.12659 4.54494C7.03815 4.48598 6.96937 4.38772 6.94972 4.27964L6.81216 3.52303L5.63303 5.24259C5.57407 5.33102 5.46599 5.3998 5.3579 5.41945C5.32842 5.41945 5.30877 5.41945 5.27929 5.41945H5.28912Z" fill="#212022"/>
<path d="M2.61644 8.84874L2.28235 7.08005C2.28235 7.08005 2.28235 7.00144 2.302 6.97197C2.32166 6.94249 2.35113 6.92284 2.39044 6.91301C2.42974 6.91301 2.46905 6.91301 2.49852 6.93266C2.528 6.95231 2.54765 6.98179 2.55748 7.0211L2.82278 8.45569L4.38512 6.17606C4.38512 6.17606 4.43425 6.12693 4.47356 6.1171C4.51286 6.1171 4.55217 6.1171 4.58164 6.13675C4.61112 6.15641 4.63078 6.18588 4.6406 6.22519C4.6406 6.26449 4.6406 6.3038 4.62095 6.33327L3.05861 8.61291L4.49321 8.34761C4.49321 8.34761 4.57182 8.34761 4.6013 8.36726C4.63078 8.38691 4.65043 8.41639 4.66025 8.45569C4.66025 8.495 4.66025 8.5343 4.6406 8.56378C4.62095 8.59326 4.59147 8.61291 4.55217 8.62274L2.78348 8.95682C2.78348 8.95682 2.74418 8.95682 2.72452 8.95682C2.70487 8.95682 2.68522 8.947 2.67539 8.93717C2.65574 8.92734 2.64592 8.91752 2.63609 8.89787C2.62626 8.87821 2.61644 8.86839 2.61644 8.84874Z" fill="#212022"/>
<path d="M2.78348 9.2516H2.67539C2.61644 9.23195 2.56731 9.20247 2.528 9.17299L2.41009 9.05508C2.41009 9.05508 2.36096 8.95682 2.35113 8.89787L2.00722 7.13901C1.98757 7.0211 2.00722 6.91301 2.07601 6.82458C2.13496 6.73614 2.23322 6.66736 2.34131 6.64771C2.45922 6.62806 2.56731 6.64771 2.65574 6.71649C2.754 6.78527 2.81296 6.87371 2.83261 6.99162L2.98 7.75805L4.15913 6.03849C4.21808 5.95006 4.31634 5.88128 4.43425 5.86163C4.54234 5.84197 4.66025 5.86163 4.74869 5.93041C4.84695 5.99919 4.9059 6.09745 4.92556 6.20554C4.94521 6.31362 4.92556 6.43153 4.85677 6.51997L3.67765 8.23952L4.44408 8.09213C4.56199 8.07248 4.67008 8.09213 4.76834 8.16091C4.85677 8.21987 4.92556 8.31813 4.94521 8.42622C4.96486 8.5343 4.94521 8.64239 4.87643 8.74065C4.80764 8.83891 4.71921 8.89787 4.6013 8.91752L2.77365 9.26143L2.78348 9.2516Z" fill="#212022"/>
</g>
</g>
</svg>
