<svg width="20" height="20" viewBox="0 0 20 20" fill="none" xmlns="http://www.w3.org/2000/svg">
<g id="type=pregnancy">
<g id="Vector">
<path d="M14.8 13.8C15.4 12.4 14.8 9.70002 14 8.50002C13.7 8.00002 13.3 8.00002 13 8.10002C12.9 8.10002 12.8 8.20002 12.7 8.20002C9.99998 9.90002 8.49998 8.24767 8.49998 8.20002C8.49998 8.15237 8.26172 8.20002 8.26172 8.20002C8.26172 8.20002 6.59998 8.70002 6.39998 10.3C6.29998 11.1 6.59998 11.9 7.29998 12.7C6.79998 13 5.39998 14 4.99998 15.6C4.69998 16.7 5.09998 17.9 5.99998 19.1L6.09998 19.2H14.2C14.3 19.2 14.4 19.1 14.3 19C14.3 19 13.6 16.4 13.6 15.2C14.3 14.6 14.6 14.2 14.8 13.8ZM14.2 18.7H6.29998C5.39998 17.6 5.09998 16.5 5.39998 15.5C5.79998 13.8 7.69998 12.8 7.69998 12.7L7.89998 12.6L7.79998 12.5C7.09998 11.8 6.79998 11 6.89998 10.2C6.99998 9.00002 8.19998 8.70002 8.49998 8.40002C8.79998 8.80002 10.2 9.80002 12.3 8.70002C12 9.40002 12 10 12.1 11C12.2 11.8 12.3 12.6 12.1 12.9C11.7 13.7 10.9 14 9.39997 14.7C9.09997 14.8 8.79998 15 8.49998 15.1C7.99998 15.3 7.89998 15.8 8.09998 16.3C8.29998 16.7 8.59998 17 9.09998 17C9.19998 17 9.29998 17 9.29998 17C10.4 16.8 12.2 16.1 13.5 15.2C13.6 16.4 14 18.1 14.2 18.7ZM9.19998 16.8C9.19998 16.8 9.09998 16.8 8.99998 16.8C8.69998 16.8 8.39998 16.7 8.29998 16.3C8.09998 15.9 8.19998 15.6 8.59998 15.4C8.89998 15.2 9.19998 15.1 9.49998 15C11 14.3 11.8 13.9 12.3 13.1C12.5 12.7 12.4 11.9 12.3 11.1C12.1 9.70002 12 8.60002 13 8.40002C13 8.40002 13 8.40002 13.1 8.40002C13.3 8.40002 13.5 8.50002 13.7 8.60002C14.5 9.80002 15 12.4 14.5 13.6C13.9 15.2 10.7 16.6 9.19998 16.8Z" fill="#212022"/>
<path fill-rule="evenodd" clip-rule="evenodd" d="M10.5 7.90002C12.3 7.90002 13.6 5.90002 13.6 4.10002C13.6 2.90002 13 1.90002 12 1.40002L11.7 1.30002C11.4 1.10002 11 1.00002 10.5 1.00002C10.1 1.00002 9.59998 1.10002 9.29998 1.20002L8.99998 1.40002C7.99998 1.90002 7.39998 2.90002 7.39998 4.10002C7.49998 5.90002 8.79998 7.90002 10.5 7.90002ZM7.79998 4.70002C8.09998 6.10002 9.09998 7.50002 10.5 7.50002C12 7.50002 13.1 5.80002 13.3 4.30002V4.00002C13.3 2.40002 12.2 1.30002 10.5 1.30002C8.89998 1.30002 7.69998 2.40002 7.69998 4.10002C7.69998 4.20002 7.69998 4.30002 7.69998 4.50002L7.79998 4.70002Z" fill="#212022"/>
<path d="M14.4 19.4H6.19997C5.99997 19.4 5.89998 19.3 5.79998 19.2C4.79998 17.9 4.39997 16.6 4.69997 15.4C4.99997 13.9 6.09998 13 6.79998 12.5C6.19998 11.8 5.99997 11 6.09997 10.2C6.19998 9.10002 6.88614 8.40002 8.08614 7.90002C8.22529 7.84204 8.38614 7.80002 8.48614 7.80002C8.58614 7.80002 8.67913 7.90002 8.78614 8.00002C8.78614 8.00002 10.2 9.30002 12.5 7.70002C12.5742 7.6484 12.7 7.61669 12.8 7.60002C13.4 7.50002 13.8 7.60002 14.2 8.10002C15.1 9.40002 15.7 12.3 15.1 13.8C14.9 14.2 14.6 14.7 14.1 15.1C14.2 16.3 14.6 18.1 14.8 18.6C15 19.1 14.5777 19.4 14.4 19.4ZM6.49998 18.3H13.6C13.5 17.7 13.2 16.8 13.1 16C11.9 16.8 10.3 17.4 9.29998 17.5C9.19998 17.5 9.09998 17.5 8.99998 17.5C8.29998 17.5 7.79997 17.2 7.59997 16.6C7.29997 15.8 7.59997 15.2 8.19997 14.9C7.99997 15 8.49997 14.8 8.19997 14.9C9.69998 14.2 11.3535 13.6 11.6535 12.9C11.7535 12.7 11.6457 11.6 11.5457 11.1C11.4457 10.4 11.3 10 11.4 9.50002C10.1 10 8.99997 9.50002 8.39997 9.00002C8.39997 9.00002 8.39998 9.00002 8.29998 9.00002C7.79998 9.20002 7.29997 9.50002 7.19997 10.3C7.09997 11 7.39997 11.6 7.99997 12.2L8.49997 12.7L7.79998 13C7.69998 13 5.99997 14 5.69997 15.5C5.59997 16.4 5.79998 17.4 6.49998 18.3ZM13.1 8.80002C12.6 8.90002 12.3533 9.50002 12.5533 11.1C12.6533 12.1 12.9 12.9 12.6 13.4C12.1 14.4 11.1 14.8 9.49998 15.5C9.29998 15.6 8.99998 15.7 8.69998 15.9C8.69998 15.9 8.49998 16 8.59998 16.3C8.63165 16.3951 8.69998 16.5 8.99998 16.5H9.09998C10.5 16.3 13.5 15 14.1 13.6C14.6 12.5 14.1 10 13.3 8.90002C13.1992 8.80002 13.2 8.80002 13.1 8.80002Z" fill="#212022"/>
<path d="M10.5 8.30002C9.59998 8.30002 8.69998 7.80002 7.99998 6.90002C7.39998 6.10002 6.99998 5.10002 6.99998 4.10002C6.99998 2.80002 7.69998 1.60002 8.79998 1.00002C9.69998 0.600022 11 0.5 12.2 1.00005C13.3 1.60005 14 2.70002 14 4.10002C14 6.00002 12.5 8.30002 10.5 8.30002ZM8.09998 4.40002C8.29998 5.60002 9.39998 7.20002 10.5 7.20002C11.8 7.20002 12.8 5.70002 12.9 4.30002V4.00002C12.9 2.60002 11.9 1.70002 10.5 1.70002C9.09998 1.70002 8.09998 2.70002 8.09998 4.10002C8.09998 4.20002 8.09998 4.30002 8.09998 4.40002Z" fill="#212022"/>
</g>
</g>
</svg>
