<svg width="20" height="20" viewBox="0 0 20 20" fill="none" xmlns="http://www.w3.org/2000/svg">
<g id="type=profile">
<path id="Vector" d="M18.1735 16.6896C16.9836 14.6326 15.15 13.1576 13.0102 12.4584C14.0686 11.8283 14.891 10.8681 15.351 9.7254C15.8109 8.58268 15.8831 7.32056 15.5563 6.13287C15.2296 4.94518 14.522 3.89759 13.5422 3.15097C12.5624 2.40436 11.3647 2 10.1328 2C8.90102 2 7.70325 2.40436 6.72349 3.15097C5.74372 3.89759 5.03612 4.94518 4.70936 6.13287C4.3826 7.32056 4.45474 8.58268 4.91471 9.7254C5.37467 10.8681 6.19703 11.8283 7.2555 12.4584C5.11565 13.1568 3.28206 14.6318 2.09222 16.6896C2.04858 16.7608 2.01964 16.8399 2.0071 16.9225C1.99456 17.005 1.99867 17.0892 2.01919 17.1701C2.03971 17.251 2.07623 17.3269 2.12658 17.3935C2.17694 17.46 2.24012 17.5158 2.31239 17.5576C2.38466 17.5993 2.46456 17.6262 2.54738 17.6365C2.63019 17.6469 2.71425 17.6406 2.79458 17.6179C2.87491 17.5953 2.94989 17.5568 3.0151 17.5047C3.08031 17.4526 3.13442 17.388 3.17425 17.3146C4.64612 14.7709 7.24768 13.2521 10.1328 13.2521C13.018 13.2521 15.6196 14.7709 17.0914 17.3146C17.1313 17.388 17.1854 17.4526 17.2506 17.5047C17.3158 17.5568 17.3908 17.5953 17.4711 17.6179C17.5514 17.6406 17.6355 17.6469 17.7183 17.6365C17.8011 17.6262 17.881 17.5993 17.9533 17.5576C18.0256 17.5158 18.0887 17.46 18.1391 17.3935C18.1895 17.3269 18.226 17.251 18.2465 17.1701C18.267 17.0892 18.2711 17.005 18.2586 16.9225C18.246 16.8399 18.2171 16.7608 18.1735 16.6896ZM5.75784 7.62713C5.75784 6.76183 6.01443 5.91597 6.49516 5.19651C6.97589 4.47704 7.65917 3.91629 8.4586 3.58515C9.25803 3.25402 10.1377 3.16738 10.9864 3.33619C11.835 3.505 12.6146 3.92168 13.2264 4.53353C13.8383 5.14539 14.255 5.92494 14.4238 6.77361C14.5926 7.62227 14.5059 8.50194 14.1748 9.30137C13.8437 10.1008 13.2829 10.7841 12.5635 11.2648C11.844 11.7455 10.9981 12.0021 10.1328 12.0021C8.9729 12.0009 7.86082 11.5396 7.04062 10.7193C6.22042 9.89915 5.75908 8.78707 5.75784 7.62713Z" fill="#212022"/>
</g>
</svg>
