<svg width="14" height="19" viewBox="0 0 14 19" fill="currentColor" xmlns="http://www.w3.org/2000/svg">
<path d="M13.2044 16.7238L11.3294 18.5988C11.2121 18.7161 11.0531 18.7819 10.8872 18.7819C10.7214 18.7819 10.5623 18.7161 10.445 18.5988C10.3277 18.4815 10.2619 18.3225 10.2619 18.1566C10.2619 17.9907 10.3277 17.8317 10.445 17.7144L11.2536 16.9066H3.38721C2.88993 16.9066 2.41302 16.7091 2.06139 16.3574C1.70975 16.0058 1.51221 15.5289 1.51221 15.0316L1.51221 7.5316C1.51221 7.36584 1.57806 7.20687 1.69527 7.08966C1.81248 6.97245 1.97145 6.9066 2.13721 6.9066C2.30297 6.9066 2.46194 6.97245 2.57915 7.08966C2.69636 7.20687 2.76221 7.36584 2.76221 7.5316L2.76221 15.0316C2.76221 15.1974 2.82806 15.3563 2.94527 15.4735C3.06248 15.5908 3.22145 15.6566 3.38721 15.6566L11.2536 15.6566L10.445 14.8488C10.3277 14.7315 10.2619 14.5725 10.2619 14.4066C10.2619 14.2407 10.3277 14.0817 10.445 13.9644C10.5623 13.8471 10.7214 13.7812 10.8872 13.7812C11.0531 13.7812 11.2121 13.8471 11.3294 13.9644L13.2044 15.8394C13.2625 15.8975 13.3086 15.9664 13.3401 16.0423C13.3715 16.1181 13.3877 16.1995 13.3877 16.2816C13.3877 16.3637 13.3715 16.4451 13.3401 16.5209C13.3086 16.5968 13.2625 16.6657 13.2044 16.7238ZM3.38721 5.0316C3.5109 5.03169 3.63183 4.99509 3.7347 4.92642C3.83757 4.85775 3.91775 4.76011 3.9651 4.64584C4.01244 4.53158 4.02482 4.40583 4.00067 4.28453C3.97651 4.16323 3.91691 4.05182 3.8294 3.96441L3.0208 3.1566L10.8872 3.1566C11.053 3.1566 11.2119 3.22245 11.3292 3.33966C11.4464 3.45687 11.5122 3.61584 11.5122 3.7816L11.5122 11.2816C11.5122 11.4474 11.5781 11.6063 11.6953 11.7235C11.8125 11.8408 11.9714 11.9066 12.1372 11.9066C12.303 11.9066 12.4619 11.8408 12.5792 11.7235C12.6964 11.6063 12.7622 11.4474 12.7622 11.2816L12.7622 3.7816C12.7622 3.28432 12.5647 2.8074 12.213 2.45577C11.8614 2.10414 11.3845 1.9066 10.8872 1.9066L3.0208 1.9066L3.8294 1.09879C3.94667 0.98151 4.01256 0.82245 4.01256 0.656598C4.01256 0.490745 3.94667 0.331685 3.8294 0.21441C3.71212 0.0971347 3.55306 0.03125 3.38721 0.03125C3.22136 0.03125 3.0623 0.0971347 2.94502 0.21441L1.07002 2.08941C1.01191 2.14746 0.965813 2.21639 0.934361 2.29226C0.902908 2.36813 0.886719 2.44946 0.886719 2.5316C0.886719 2.61373 0.902908 2.69506 0.934361 2.77094C0.965813 2.84681 1.01191 2.91574 1.07002 2.97378L2.94502 4.84879C3.00311 4.90681 3.07206 4.95282 3.14793 4.98418C3.2238 5.01555 3.30511 5.03166 3.38721 5.0316Z" fill="currentColor"/>
</svg>
