<svg width="20" height="20" viewBox="0 0 20 20" fill="currentColor" xmlns="http://www.w3.org/2000/svg">
    <g id="type=settings">
        <path id="Vector"
              d="M10 6.25004C9.25836 6.25004 8.53333 6.46997 7.91665 6.88202C7.29996 7.29408 6.81932 7.87975 6.53549 8.56497C6.25166 9.2502 6.1774 10.0042 6.32209 10.7316C6.46679 11.4591 6.82394 12.1272 7.34839 12.6517C7.87283 13.1761 8.54102 13.5333 9.26845 13.678C9.99588 13.8227 10.7499 13.7484 11.4351 13.4646C12.1203 13.1808 12.706 12.7001 13.118 12.0834C13.5301 11.4667 13.75 10.7417 13.75 10C13.749 9.00579 13.3536 8.05256 12.6505 7.34953C11.9475 6.64649 10.9943 6.25107 10 6.25004ZM10 12.5C9.50558 12.5 9.02223 12.3534 8.61111 12.0787C8.19999 11.804 7.87956 11.4136 7.69034 10.9567C7.50112 10.4999 7.45161 9.99726 7.54807 9.51231C7.64454 9.02736 7.88264 8.5819 8.23227 8.23227C8.5819 7.88264 9.02736 7.64454 9.51231 7.54807C9.99726 7.45161 10.4999 7.50112 10.9567 7.69034C11.4136 7.87956 11.804 8.19999 12.0787 8.61111C12.3534 9.02223 12.5 9.50558 12.5 10C12.5 10.6631 12.2366 11.299 11.7678 11.7678C11.299 12.2366 10.6631 12.5 10 12.5ZM16.875 10.1688C16.8782 10.0563 16.8782 9.94379 16.875 9.83129L18.0407 8.37504C18.1018 8.29858 18.1441 8.20883 18.1642 8.11303C18.1842 8.01722 18.1816 7.91804 18.1563 7.82347C17.9652 7.10519 17.6794 6.41554 17.3063 5.77269C17.2574 5.68857 17.1896 5.617 17.1082 5.5637C17.0269 5.5104 16.9342 5.47683 16.8375 5.46566L14.9844 5.25941C14.9073 5.17816 14.8292 5.10004 14.75 5.02504L14.5313 3.16722C14.52 3.07051 14.4863 2.97777 14.4329 2.89639C14.3795 2.815 14.3077 2.74723 14.2235 2.69847C13.5804 2.32609 12.8908 2.04053 12.1727 1.84925C12.0781 1.8241 11.9788 1.82152 11.883 1.84174C11.7872 1.86196 11.6975 1.90441 11.6211 1.96566L10.1688 3.12504C10.0563 3.12504 9.94379 3.12504 9.83129 3.12504L8.37504 1.96175C8.29858 1.90064 8.20883 1.85833 8.11303 1.83825C8.01722 1.81816 7.91804 1.82086 7.82347 1.84613C7.10531 2.03756 6.4157 2.32338 5.77269 2.69613C5.68857 2.74498 5.617 2.81279 5.5637 2.89417C5.5104 2.97555 5.47683 3.06824 5.46566 3.16488L5.25941 5.02113C5.17816 5.09873 5.10004 5.17686 5.02504 5.2555L3.16722 5.46879C3.07051 5.48004 2.97777 5.51373 2.89639 5.56717C2.815 5.62061 2.74723 5.69233 2.69847 5.7766C2.32609 6.4197 2.04053 7.10929 1.84925 7.82738C1.8241 7.92201 1.82152 8.02122 1.84174 8.11703C1.86196 8.21284 1.90441 8.30255 1.96566 8.37894L3.12504 9.83129C3.12504 9.94379 3.12504 10.0563 3.12504 10.1688L1.96175 11.625C1.90064 11.7015 1.85833 11.7912 1.83825 11.887C1.81816 11.9828 1.82086 12.082 1.84613 12.1766C2.03721 12.8949 2.32306 13.5845 2.69613 14.2274C2.74498 14.3115 2.81279 14.3831 2.89417 14.4364C2.97555 14.4897 3.06824 14.5232 3.16488 14.5344L5.018 14.7407C5.09561 14.8219 5.17373 14.9 5.25238 14.975L5.46879 16.8328C5.48004 16.9296 5.51373 17.0223 5.56717 17.1037C5.62061 17.1851 5.69233 17.2528 5.7766 17.3016C6.4197 17.674 7.10929 17.9595 7.82738 18.1508C7.92201 18.176 8.02122 18.1785 8.11703 18.1583C8.21284 18.1381 8.30255 18.0957 8.37894 18.0344L9.83129 16.875C9.94379 16.8782 10.0563 16.8782 10.1688 16.875L11.625 18.0407C11.7015 18.1018 11.7912 18.1441 11.887 18.1642C11.9828 18.1842 12.082 18.1816 12.1766 18.1563C12.8949 17.9652 13.5845 17.6794 14.2274 17.3063C14.3115 17.2574 14.3831 17.1896 14.4364 17.1082C14.4897 17.0269 14.5232 16.9342 14.5344 16.8375L14.7407 14.9844C14.8219 14.9073 14.9 14.8292 14.975 14.75L16.8328 14.5313C16.9296 14.52 17.0223 14.4863 17.1037 14.4329C17.1851 14.3795 17.2528 14.3077 17.3016 14.2235C17.674 13.5804 17.9595 12.8908 18.1508 12.1727C18.176 12.0781 18.1785 11.9788 18.1583 11.883C18.1381 11.7872 18.0957 11.6975 18.0344 11.6211L16.875 10.1688ZM15.6172 9.66097C15.6305 9.88682 15.6305 10.1133 15.6172 10.3391C15.6079 10.4937 15.6564 10.6463 15.7532 10.7672L16.8618 12.1524C16.7345 12.5567 16.5717 12.9488 16.375 13.3243L14.6094 13.5243C14.4556 13.5413 14.3137 13.6148 14.211 13.7305C14.0606 13.8996 13.9004 14.0598 13.7313 14.2102C13.6156 14.3129 13.5421 14.4549 13.525 14.6086L13.3289 16.3727C12.9535 16.5694 12.5614 16.7323 12.1571 16.8594L10.7711 15.7508C10.6602 15.6622 10.5225 15.614 10.3805 15.6141H10.343C10.1172 15.6274 9.89073 15.6274 9.66488 15.6141C9.51026 15.6048 9.35769 15.6532 9.23675 15.75L7.84769 16.8594C7.44342 16.7322 7.05125 16.5693 6.67582 16.3727L6.47582 14.6094C6.45875 14.4556 6.38526 14.3137 6.26957 14.211C6.10043 14.0606 5.94026 13.9004 5.78988 13.7313C5.68717 13.6156 5.5452 13.5421 5.39144 13.525L3.62738 13.3282C3.43065 12.9528 3.26777 12.5606 3.14066 12.1563L4.24925 10.7703C4.34606 10.6494 4.3945 10.4968 4.38519 10.3422C4.37191 10.1164 4.37191 9.88995 4.38519 9.6641C4.3945 9.50947 4.34606 9.3569 4.24925 9.23597L3.14066 7.84769C3.26787 7.44342 3.43075 7.05125 3.62738 6.67582L5.39066 6.47582C5.54442 6.45875 5.68639 6.38526 5.7891 6.26957C5.93948 6.10043 6.09965 5.94026 6.26879 5.78988C6.38494 5.6871 6.45873 5.54481 6.47582 5.39066L6.67191 3.62738C7.0473 3.43065 7.43948 3.26777 7.84379 3.14066L9.22972 4.24925C9.35066 4.34606 9.50323 4.3945 9.65785 4.38519C9.88369 4.37191 10.1101 4.37191 10.336 4.38519C10.4906 4.3945 10.6432 4.34606 10.7641 4.24925L12.1524 3.14066C12.5567 3.26787 12.9488 3.43075 13.3243 3.62738L13.5243 5.39066C13.5413 5.54442 13.6148 5.68639 13.7305 5.7891C13.8996 5.93948 14.0598 6.09965 14.2102 6.26879C14.3129 6.38448 14.4549 6.45797 14.6086 6.47504L16.3727 6.67113C16.5694 7.04652 16.7323 7.4387 16.8594 7.843L15.7508 9.22894C15.6531 9.35089 15.6046 9.50503 15.6149 9.66097H15.6172Z"
              fill="currentColor"/>
    </g>
</svg>
