<svg width="20" height="20" viewBox="0 0 20 20" fill="none" xmlns="http://www.w3.org/2000/svg">
<g id="type=shades">
<path id="Vector" d="M15.3033 7.5C15.3088 7.39766 15.3127 7.29453 15.3127 7.1875C15.3127 5.77854 14.753 4.42728 13.7567 3.431C12.7604 2.43471 11.4091 1.875 10.0002 1.875C8.59121 1.875 7.23996 2.43471 6.24367 3.431C5.24738 4.42728 4.68767 5.77854 4.68767 7.1875C4.68767 7.29141 4.68767 7.39453 4.69705 7.5C4.05597 7.82807 3.48829 8.28305 3.02849 8.8373C2.56869 9.39155 2.22638 10.0335 2.02235 10.7241C1.81833 11.4148 1.75685 12.1397 1.84165 12.8548C1.92645 13.57 2.15577 14.2604 2.51566 14.8841C2.87555 15.5079 3.35851 16.052 3.93518 16.4833C4.51186 16.9147 5.17021 17.2243 5.87024 17.3933C6.57026 17.5623 7.29735 17.5873 8.00731 17.4666C8.71728 17.346 9.3953 17.0822 10.0002 16.6914C10.6051 17.0822 11.2831 17.346 11.993 17.4666C12.703 17.5873 13.4301 17.5623 14.1301 17.3933C14.8301 17.2243 15.4885 16.9147 16.0652 16.4833C16.6418 16.052 17.1248 15.5079 17.4847 14.8841C17.8446 14.2604 18.0739 13.57 18.1587 12.8548C18.2435 12.1397 18.182 11.4148 17.978 10.7241C17.774 10.0335 17.4317 9.39155 16.9719 8.8373C16.5121 8.28305 15.9444 7.82807 15.3033 7.5ZM10.0002 15.1148C9.24149 14.39 8.79342 13.3992 8.75017 12.3508C9.56899 12.5497 10.4235 12.5497 11.2424 12.3508C11.2012 13.3981 10.756 14.3887 10.0002 15.1148ZM10.0002 11.25C9.62826 11.2499 9.25812 11.1986 8.90017 11.0977C9.0961 10.3979 9.47594 9.76339 10.0002 9.26016C10.5244 9.76339 10.9042 10.3979 11.1002 11.0977C10.7422 11.1986 10.3721 11.2499 10.0002 11.25ZM7.75252 10.5695C6.94219 10.03 6.35165 9.2183 6.08767 8.28125C7.04474 8.01118 8.0677 8.10238 8.96189 8.5375C8.41159 9.11566 7.99828 9.81012 7.75252 10.5695ZM11.0385 8.53359C11.9331 8.09977 12.9561 8.00996 13.9127 8.28125C13.6495 9.21974 13.0589 10.0329 12.2478 10.5734C12.0031 9.81124 11.5898 9.11401 11.0385 8.53359ZM10.0002 3.125C11.0496 3.12531 12.0582 3.53123 12.8153 4.25789C13.5724 4.98455 14.0193 5.97572 14.0627 7.02422C13.3758 6.85715 12.6624 6.82943 11.9647 6.94268C11.2669 7.05593 10.5989 7.30786 10.0002 7.68359C9.40192 7.30838 8.7346 7.05674 8.03755 6.94349C7.34051 6.83025 6.62785 6.8577 5.94158 7.02422C5.98489 5.9764 6.43127 4.9858 7.18752 4.25924C7.94378 3.53268 8.95146 3.12632 10.0002 3.125ZM3.12517 12.1875C3.12551 11.5179 3.29137 10.8587 3.608 10.2686C3.92463 9.67859 4.38221 9.17596 4.94002 8.80547C5.36617 10.1231 6.28747 11.2237 7.50955 11.875C7.50408 11.9773 7.50017 12.0805 7.50017 12.1875C7.4996 13.5481 8.02307 14.8566 8.96189 15.8414C8.34261 16.1421 7.65709 16.2804 6.96968 16.2435C6.28227 16.2065 5.61552 15.9955 5.03203 15.6302C4.44853 15.2649 3.96743 14.7574 3.63388 14.1552C3.30034 13.553 3.12529 12.8759 3.12517 12.1875ZM12.8127 16.25C12.1979 16.2507 11.591 16.111 11.0385 15.8414C11.9773 14.8566 12.5007 13.5481 12.5002 12.1875C12.5002 12.0836 12.4963 11.9805 12.4908 11.875C13.7135 11.2229 14.6349 10.1211 15.0603 8.80234C15.7876 9.2849 16.3402 9.98885 16.6361 10.81C16.9321 11.6311 16.9557 12.5257 16.7036 13.3612C16.4514 14.1968 15.9368 14.929 15.236 15.4493C14.5352 15.9696 13.6855 16.2504 12.8127 16.25Z" fill="#212022"/>
</g>
</svg>
