<svg width="20" height="20" viewBox="0 0 20 20" fill="none" xmlns="http://www.w3.org/2000/svg">
<g id="type=sortable">
<path id="Vector" d="M12.9422 15.1828C13.0003 15.2409 13.0464 15.3098 13.0778 15.3857C13.1093 15.4615 13.1255 15.5429 13.1255 15.625C13.1255 15.7071 13.1093 15.7885 13.0778 15.8643C13.0464 15.9402 13.0003 16.0091 12.9422 16.0672L10.4422 18.5672C10.3841 18.6253 10.3152 18.6714 10.2393 18.7029C10.1634 18.7343 10.0821 18.7505 9.99998 18.7505C9.91785 18.7505 9.83652 18.7343 9.76064 18.7029C9.68477 18.6714 9.61584 18.6253 9.55779 18.5672L7.05779 16.0672C6.94052 15.9499 6.87463 15.7909 6.87463 15.625C6.87463 15.4592 6.94052 15.3001 7.05779 15.1828C7.17507 15.0655 7.33413 14.9997 7.49998 14.9997C7.66583 14.9997 7.82489 15.0655 7.94217 15.1828L9.37498 16.6164V3.3836L7.94217 4.81719C7.82489 4.93447 7.66583 5.00035 7.49998 5.00035C7.33413 5.00035 7.17507 4.93447 7.05779 4.81719C6.94052 4.69992 6.87463 4.54086 6.87463 4.375C6.87463 4.20915 6.94052 4.05009 7.05779 3.93282L9.55779 1.43282C9.61584 1.37471 9.68477 1.32861 9.76064 1.29715C9.83652 1.2657 9.91785 1.24951 9.99998 1.24951C10.0821 1.24951 10.1634 1.2657 10.2393 1.29715C10.3152 1.32861 10.3841 1.37471 10.4422 1.43282L12.9422 3.93282C13.0594 4.05009 13.1253 4.20915 13.1253 4.375C13.1253 4.54086 13.0594 4.69992 12.9422 4.81719C12.8249 4.93447 12.6658 5.00035 12.5 5.00035C12.3341 5.00035 12.1751 4.93447 12.0578 4.81719L10.625 3.3836V16.6164L12.0578 15.1828C12.1158 15.1247 12.1848 15.0786 12.2606 15.0472C12.3365 15.0157 12.4178 14.9995 12.5 14.9995C12.5821 14.9995 12.6634 15.0157 12.7393 15.0472C12.8152 15.0786 12.8841 15.1247 12.9422 15.1828Z" fill="#212022"/>
</g>
</svg>
