<svg width="20" height="20" viewBox="0 0 20 20" fill="currentColor" xmlns="http://www.w3.org/2000/svg">
<path d="M12.5866 3C11.2866 3.001 10.0125 3.36363 8.90679 4.04734C7.80108 4.73105 6.90737 5.70889 6.32561 6.87148C5.63353 6.77054 4.92808 6.81329 4.25326 6.99706C3.57843 7.18083 2.94871 7.50168 2.40337 7.93959C1.85803 8.3775 1.40878 8.92308 1.08362 9.5423C0.758466 10.1615 0.564389 10.8411 0.513496 11.5386C0.462604 12.2362 0.555986 12.9367 0.787819 13.5966C1.01965 14.2565 1.38496 14.8615 1.86096 15.3739C2.33697 15.8863 2.91345 16.2952 3.55445 16.5749C4.19546 16.8547 4.88723 16.9994 5.58663 17H12.5866C14.4432 17 16.2236 16.2625 17.5364 14.9497C18.8491 13.637 19.5866 11.8565 19.5866 10C19.5866 8.14348 18.8491 6.36301 17.5364 5.05025C16.2236 3.7375 14.4432 3 12.5866 3ZM12.5866 15.7273H5.58663C4.57399 15.7273 3.60282 15.325 2.88677 14.609C2.17072 13.8929 1.76845 12.9217 1.76845 11.9091C1.76845 10.8964 2.17072 9.92528 2.88677 9.20923C3.60282 8.49318 4.57399 8.09091 5.58663 8.09091C5.67413 8.09091 5.76163 8.09091 5.84834 8.09966C5.67431 8.7181 5.58625 9.35754 5.58663 10C5.58663 10.1688 5.65368 10.3306 5.77302 10.45C5.89236 10.5693 6.05422 10.6364 6.223 10.6364C6.39177 10.6364 6.55363 10.5693 6.67297 10.45C6.79232 10.3306 6.85936 10.1688 6.85936 10C6.85936 8.86725 7.19526 7.75994 7.82458 6.8181C8.4539 5.87625 9.34838 5.14217 10.3949 4.70869C11.4414 4.27521 12.593 4.16179 13.704 4.38278C14.815 4.60376 15.8355 5.14923 16.6364 5.95021C17.4374 6.75118 17.9829 7.77168 18.2039 8.88266C18.4248 9.99365 18.3114 11.1452 17.8779 12.1917C17.4445 13.2383 16.7104 14.1327 15.7685 14.7621C14.8267 15.3914 13.7194 15.7273 12.5866 15.7273ZM14.946 9.1775L13.4863 10.6364L14.946 12.0952C15.0051 12.1544 15.052 12.2245 15.084 12.3018C15.116 12.379 15.1324 12.4618 15.1324 12.5455C15.1324 12.6291 15.116 12.7119 15.084 12.7891C15.052 12.8664 15.0051 12.9366 14.946 12.9957C14.8868 13.0548 14.8166 13.1017 14.7394 13.1337C14.6621 13.1657 14.5793 13.1822 14.4957 13.1822C14.4121 13.1822 14.3293 13.1657 14.2521 13.1337C14.1748 13.1017 14.1046 13.0548 14.0455 12.9957L12.5866 11.536L11.1278 12.9957C11.0084 13.1151 10.8464 13.1822 10.6775 13.1822C10.5087 13.1822 10.3467 13.1151 10.2273 12.9957C10.1079 12.8763 10.0408 12.7143 10.0408 12.5455C10.0408 12.3766 10.1079 12.2146 10.2273 12.0952L11.687 10.6364L10.2273 9.1775C10.1079 9.05809 10.0408 8.89614 10.0408 8.72727C10.0408 8.5584 10.1079 8.39645 10.2273 8.27705C10.3467 8.15764 10.5087 8.09056 10.6775 8.09056C10.8464 8.09056 11.0084 8.15764 11.1278 8.27705L12.5866 9.7367L14.0455 8.27705C14.1046 8.21792 14.1748 8.17102 14.2521 8.13902C14.3293 8.10702 14.4121 8.09056 14.4957 8.09056C14.5793 8.09056 14.6621 8.10702 14.7394 8.13902C14.8166 8.17102 14.8868 8.21792 14.946 8.27705C15.0051 8.33617 15.052 8.40636 15.084 8.48361C15.116 8.56086 15.1324 8.64366 15.1324 8.72727C15.1324 8.81089 15.116 8.89368 15.084 8.97093C15.052 9.04818 15.0051 9.11838 14.946 9.1775Z" fill="currentColor"/>
</svg>
