<svg width="20" height="20" viewBox="0 0 20 20" fill="none" xmlns="http://www.w3.org/2000/svg">
<g id="type=tap">
<path id="Vector" d="M3.87758 6.6875C3.87758 5.4443 4.37144 4.25201 5.25052 3.37294C6.12959 2.49386 7.32188 2 8.56508 2C9.80828 2 11.0006 2.49386 11.8796 3.37294C12.7587 4.25201 13.2526 5.4443 13.2526 6.6875C13.2526 6.85326 13.1867 7.01223 13.0695 7.12944C12.9523 7.24665 12.7933 7.3125 12.6276 7.3125C12.4618 7.3125 12.3028 7.24665 12.1856 7.12944C12.0684 7.01223 12.0026 6.85326 12.0026 6.6875C12.0026 5.77582 11.6404 4.90148 10.9958 4.25682C10.3511 3.61216 9.47676 3.25 8.56508 3.25C7.6534 3.25 6.77906 3.61216 6.1344 4.25682C5.48974 4.90148 5.12758 5.77582 5.12758 6.6875C5.12758 6.85326 5.06173 7.01223 4.94452 7.12944C4.82731 7.24665 4.66834 7.3125 4.50258 7.3125C4.33682 7.3125 4.17785 7.24665 4.06064 7.12944C3.94343 7.01223 3.87758 6.85326 3.87758 6.6875ZM14.8151 10.125C14.4505 10.1246 14.0916 10.2157 13.7713 10.3898C13.6756 10.0937 13.5178 9.82133 13.3084 9.59102C13.0991 9.36071 12.843 9.17773 12.5572 9.05431C12.2715 8.93089 11.9627 8.86987 11.6515 8.87532C11.3403 8.88078 11.0338 8.95258 10.7526 9.08594V6.6875C10.7526 6.10734 10.5221 5.55094 10.1119 5.1407C9.70164 4.73047 9.14524 4.5 8.56508 4.5C7.98492 4.5 7.42852 4.73047 7.01828 5.1407C6.60805 5.55094 6.37758 6.10734 6.37758 6.6875V12.9375L6.07914 12.4586C5.7873 11.9571 5.30818 11.592 4.74718 11.4437C4.18618 11.2955 3.58926 11.3761 3.08773 11.668C2.58621 11.9598 2.22115 12.4389 2.07288 12.9999C1.92461 13.5609 2.00527 14.1578 2.29711 14.6594L4.58773 18.5656C4.62615 18.6417 4.67972 18.7091 4.74516 18.7637C4.81059 18.8183 4.8865 18.859 4.96822 18.8832C5.04994 18.9074 5.13575 18.9146 5.22037 18.9044C5.30499 18.8942 5.38663 18.8668 5.46027 18.8239C5.53391 18.781 5.598 18.7235 5.6486 18.6549C5.69919 18.5864 5.73523 18.5081 5.75448 18.4251C5.77374 18.3421 5.77581 18.256 5.76057 18.1721C5.74533 18.0883 5.7131 18.0084 5.66586 17.9375L3.37758 14.0313C3.31333 13.9245 3.271 13.8061 3.25304 13.6829C3.23508 13.5596 3.24187 13.434 3.27299 13.3134C3.30412 13.1928 3.35897 13.0796 3.43433 12.9804C3.50969 12.8813 3.60406 12.7981 3.71192 12.7358C3.81978 12.6736 3.93897 12.6334 4.06253 12.6177C4.18609 12.602 4.31154 12.611 4.43155 12.6444C4.55156 12.6777 4.66373 12.7346 4.76151 12.8117C4.85929 12.8889 4.94071 12.9848 5.00102 13.0938L5.01195 13.1117L6.47133 15.4555C6.54298 15.5711 6.6504 15.6602 6.77727 15.7092C6.90414 15.7582 7.04355 15.7645 7.17433 15.7272C7.30512 15.6898 7.42014 15.6108 7.50194 15.5021C7.58373 15.3934 7.62785 15.261 7.62758 15.125V6.6875C7.62758 6.43886 7.72635 6.2004 7.90217 6.02459C8.07798 5.84877 8.31644 5.75 8.56508 5.75C8.81372 5.75 9.05218 5.84877 9.22799 6.02459C9.40381 6.2004 9.50258 6.43886 9.50258 6.6875V12C9.50258 12.1658 9.56843 12.3247 9.68564 12.4419C9.80285 12.5592 9.96182 12.625 10.1276 12.625C10.2933 12.625 10.4523 12.5592 10.5695 12.4419C10.6867 12.3247 10.7526 12.1658 10.7526 12V11.0625C10.7526 10.8139 10.8514 10.5754 11.0272 10.3996C11.203 10.2238 11.4414 10.125 11.6901 10.125C11.9387 10.125 12.1772 10.2238 12.353 10.3996C12.5288 10.5754 12.6276 10.8139 12.6276 11.0625V12.625C12.6276 12.7908 12.6934 12.9497 12.8106 13.0669C12.9278 13.1842 13.0868 13.25 13.2526 13.25C13.4183 13.25 13.5773 13.1842 13.6945 13.0669C13.8117 12.9497 13.8776 12.7908 13.8776 12.625V12.3125C13.8776 12.0639 13.9764 11.8254 14.1522 11.6496C14.328 11.4738 14.5664 11.375 14.8151 11.375C15.0637 11.375 15.3022 11.4738 15.478 11.6496C15.6538 11.8254 15.7526 12.0639 15.7526 12.3125V15.125C15.7526 16.8133 15.1979 17.9609 15.1932 17.9703C15.1192 18.1186 15.107 18.2902 15.1595 18.4474C15.2119 18.6046 15.3247 18.7345 15.4729 18.8086C15.5596 18.8524 15.6554 18.8752 15.7526 18.875C15.8687 18.8751 15.9825 18.8428 16.0813 18.7818C16.1801 18.7208 16.26 18.6335 16.312 18.5297C16.3409 18.4727 17.0034 17.1234 17.0034 15.125V12.3125C17.0034 12.0252 16.9468 11.7407 16.8368 11.4752C16.7268 11.2097 16.5656 10.9686 16.3624 10.7654C16.1592 10.5623 15.9179 10.4012 15.6524 10.2913C15.3869 10.1814 15.1024 10.1249 14.8151 10.125Z" fill="#212022"/>
</g>
</svg>
