<svg width="20" height="20" viewBox="0 0 20 20" fill="none" xmlns="http://www.w3.org/2000/svg">
<g id="type=uploadFile">
<path id="Vector" d="M16.5672 6.55781L12.1922 2.18281C12.1341 2.12479 12.0652 2.07878 11.9893 2.04741C11.9134 2.01605 11.8321 1.99994 11.75 2H4.25C3.91848 2 3.60054 2.1317 3.36612 2.36612C3.1317 2.60054 3 2.91848 3 3.25V17C3 17.3315 3.1317 17.6495 3.36612 17.8839C3.60054 18.1183 3.91848 18.25 4.25 18.25H15.5C15.8315 18.25 16.1495 18.1183 16.3839 17.8839C16.6183 17.6495 16.75 17.3315 16.75 17V7C16.7501 6.9179 16.734 6.83659 16.7026 6.76072C16.6712 6.68485 16.6252 6.6159 16.5672 6.55781ZM12.375 4.13359L14.6164 6.375H12.375V4.13359ZM15.5 17H4.25V3.25H11.125V7C11.125 7.16576 11.1908 7.32473 11.3081 7.44194C11.4253 7.55915 11.5842 7.625 11.75 7.625H15.5V17ZM12.1922 10.9328C12.2503 10.9909 12.2963 11.0598 12.3277 11.1357C12.3592 11.2116 12.3753 11.2929 12.3753 11.375C12.3753 11.4571 12.3592 11.5384 12.3277 11.6143C12.2963 11.6902 12.2503 11.7591 12.1922 11.8172C12.1341 11.8753 12.0652 11.9213 11.9893 11.9527C11.9134 11.9842 11.8321 12.0003 11.75 12.0003C11.6679 12.0003 11.5866 11.9842 11.5107 11.9527C11.4348 11.9213 11.3659 11.8753 11.3078 11.8172L10.5 11.0086V14.5C10.5 14.6658 10.4342 14.8247 10.3169 14.9419C10.1997 15.0592 10.0408 15.125 9.875 15.125C9.70924 15.125 9.55027 15.0592 9.43306 14.9419C9.31585 14.8247 9.25 14.6658 9.25 14.5V11.0086L8.44219 11.8172C8.38412 11.8753 8.31518 11.9213 8.23931 11.9527C8.16344 11.9842 8.08212 12.0003 8 12.0003C7.91788 12.0003 7.83656 11.9842 7.76069 11.9527C7.68482 11.9213 7.61588 11.8753 7.55781 11.8172C7.49974 11.7591 7.45368 11.6902 7.42225 11.6143C7.39083 11.5384 7.37465 11.4571 7.37465 11.375C7.37465 11.2929 7.39083 11.2116 7.42225 11.1357C7.45368 11.0598 7.49974 10.9909 7.55781 10.9328L9.43281 9.05781C9.49086 8.9997 9.55979 8.9536 9.63566 8.92215C9.71154 8.8907 9.79287 8.87451 9.875 8.87451C9.95713 8.87451 10.0385 8.8907 10.1143 8.92215C10.1902 8.9536 10.2591 8.9997 10.3172 9.05781L12.1922 10.9328Z" fill="#212022"/>
</g>
</svg>
