<svg width="20" height="20" viewBox="0 0 20 20" fill="none" xmlns="http://www.w3.org/2000/svg">
<g id="type=uploadedFile">
<path id="Vector" d="M16.8794 9.68305C16.9375 9.7411 16.9836 9.81003 17.0151 9.8859C17.0465 9.96178 17.0627 10.0431 17.0627 10.1252C17.0627 10.2074 17.0465 10.2887 17.0151 10.3646C16.9836 10.4405 16.9375 10.5094 16.8794 10.5674L10.4692 16.9737C9.64863 17.7942 8.53568 18.2551 7.37522 18.255C6.21477 18.255 5.10187 17.7939 4.28136 16.9733C3.46085 16.1527 2.99993 15.0397 3 13.8793C3.00007 12.7188 3.46113 11.6059 4.28175 10.7854L12.0364 2.91665C12.6223 2.33017 13.4171 2.00044 14.2461 2C15.0751 1.99956 15.8703 2.32845 16.4567 2.91431C17.0432 3.50016 17.373 4.29501 17.3734 5.12398C17.3738 5.95295 17.045 6.74814 16.4591 7.33462L8.70284 15.2034C8.3506 15.5556 7.87286 15.7535 7.37472 15.7535C6.87657 15.7535 6.39883 15.5556 6.04659 15.2034C5.69435 14.8511 5.49647 14.3734 5.49647 13.8752C5.49647 13.3771 5.69435 12.8994 6.04659 12.5471L12.5544 5.93618C12.6114 5.87537 12.68 5.82657 12.7562 5.79266C12.8323 5.75876 12.9145 5.74043 12.9978 5.73875C13.0811 5.73707 13.164 5.75208 13.2414 5.7829C13.3189 5.81371 13.3894 5.85971 13.4488 5.91818C13.5082 5.97665 13.5553 6.04641 13.5874 6.12336C13.6194 6.20031 13.6357 6.2829 13.6354 6.36625C13.635 6.44961 13.618 6.53205 13.5853 6.60873C13.5526 6.68541 13.5049 6.75477 13.445 6.81274L6.93644 13.4307C6.87816 13.4885 6.83185 13.5572 6.80013 13.633C6.76842 13.7087 6.75193 13.7899 6.7516 13.872C6.75127 13.9541 6.76712 14.0354 6.79823 14.1114C6.82934 14.1873 6.87511 14.2564 6.93292 14.3147C6.99073 14.373 7.05946 14.4193 7.13517 14.451C7.21088 14.4827 7.2921 14.4992 7.37419 14.4995C7.45627 14.4999 7.53762 14.484 7.61358 14.4529C7.68954 14.4218 7.75863 14.376 7.81691 14.3182L15.5724 6.45337C15.9246 6.10185 16.1228 5.62481 16.1233 5.12718C16.1238 4.62955 15.9266 4.15209 15.5751 3.79985C15.2236 3.44761 14.7465 3.24944 14.2489 3.24892C13.7513 3.24841 13.2738 3.4456 12.9216 3.79712L5.16847 11.6627C4.87802 11.9527 4.64753 12.2971 4.49017 12.6761C4.3328 13.0552 4.25164 13.4615 4.25131 13.872C4.25099 14.2824 4.3315 14.6889 4.48827 15.0682C4.64503 15.4475 4.87497 15.7922 5.16495 16.0827C5.45494 16.3731 5.79929 16.6036 6.17835 16.761C6.55741 16.9183 6.96376 16.9995 7.37419 16.9998C7.78461 17.0001 8.19109 16.9196 8.5704 16.7629C8.94971 16.6061 9.29443 16.3762 9.58487 16.0862L15.9958 9.67993C16.1134 9.56322 16.2726 9.49799 16.4383 9.49858C16.6039 9.49916 16.7626 9.56552 16.8794 9.68305Z" fill="#212022"/>
</g>
</svg>
