<svg width="20" height="20" viewBox="0 0 20 20" fill="none" xmlns="http://www.w3.org/2000/svg">
<g id="type=userManagement">
<path id="Vector" d="M11.0037 12.8219C11.9835 12.2116 12.7379 11.2989 13.1527 10.2218C13.5675 9.14464 13.6203 7.9617 13.3029 6.85192C12.9856 5.74214 12.3154 4.76591 11.3938 4.07092C10.4723 3.37593 9.34941 3 8.19515 3C7.04089 3 5.91803 3.37593 4.99645 4.07092C4.07487 4.76591 3.40472 5.74214 3.08737 6.85192C2.77003 7.9617 2.82276 9.14464 3.23759 10.2218C3.65243 11.2989 4.40679 12.2116 5.38655 12.8219C3.77327 13.35 2.32171 14.3367 1.15452 15.7258C1.09983 15.7883 1.05816 15.8611 1.03194 15.94C1.00572 16.0188 0.995484 16.1021 1.00182 16.1849C1.00816 16.2677 1.03095 16.3485 1.06885 16.4224C1.10676 16.4963 1.15902 16.5619 1.22258 16.6154C1.28615 16.6689 1.35974 16.7092 1.43905 16.7339C1.51836 16.7586 1.60181 16.7673 1.68451 16.7594C1.76721 16.7515 1.8475 16.7271 1.92069 16.6878C1.99388 16.6485 2.0585 16.595 2.11077 16.5305C3.67952 14.6586 5.84046 13.6281 8.19124 13.6281C10.542 13.6281 12.703 14.6586 14.2748 16.5305C14.3815 16.6575 14.5343 16.7369 14.6996 16.7513C14.8649 16.7656 15.0291 16.7137 15.1561 16.607C15.2831 16.5003 15.3625 16.3475 15.3769 16.1823C15.3912 16.017 15.3394 15.8528 15.2326 15.7258C14.0647 14.3367 12.6131 13.35 11.0037 12.8219ZM4.12874 8.31562C4.12874 7.51214 4.367 6.7267 4.81339 6.05862C5.25979 5.39055 5.89426 4.86984 6.63659 4.56236C7.37891 4.25488 8.19575 4.17443 8.98379 4.33118C9.77184 4.48794 10.4957 4.87485 11.0639 5.443C11.632 6.01115 12.0189 6.73502 12.1757 7.52307C12.3324 8.31112 12.252 9.12795 11.9445 9.87028C11.637 10.6126 11.1163 11.2471 10.4482 11.6935C9.78017 12.1399 8.99473 12.3781 8.19124 12.3781C7.11418 12.3769 6.08159 11.9485 5.31999 11.1869C4.55839 10.4253 4.12998 9.39269 4.12874 8.31562ZM18.8358 11.6805L18.4717 11.4703C18.5144 11.2442 18.5144 11.0121 18.4717 10.7859L18.8358 10.5758C18.9794 10.4929 19.0841 10.3564 19.1271 10.1962C19.17 10.0361 19.1476 9.86546 19.0647 9.72187C18.9818 9.57828 18.8453 9.4735 18.6851 9.43057C18.525 9.38764 18.3544 9.41009 18.2108 9.49297L17.8459 9.70391C17.6713 9.55411 17.4706 9.43783 17.2537 9.36094V8.94062C17.2537 8.77486 17.1879 8.61589 17.0707 8.49868C16.9535 8.38147 16.7945 8.31562 16.6287 8.31562C16.463 8.31562 16.304 8.38147 16.1868 8.49868C16.0696 8.61589 16.0037 8.77486 16.0037 8.94062V9.36094C15.7869 9.43783 15.5862 9.55411 15.4116 9.70391L15.0467 9.49297C14.9756 9.45193 14.8971 9.4253 14.8157 9.41459C14.7343 9.40389 14.6516 9.40932 14.5723 9.43057C14.4931 9.45183 14.4187 9.48849 14.3536 9.53848C14.2885 9.58846 14.2338 9.65078 14.1928 9.72187C14.1518 9.79297 14.1251 9.87146 14.1144 9.95285C14.1037 10.0342 14.1091 10.1169 14.1304 10.1962C14.1517 10.2755 14.1883 10.3499 14.2383 10.415C14.2883 10.4801 14.3506 10.5347 14.4217 10.5758L14.7858 10.7859C14.7431 11.0121 14.7431 11.2442 14.7858 11.4703L14.4217 11.6805C14.2781 11.7633 14.1733 11.8999 14.1304 12.06C14.0875 12.2202 14.1099 12.3908 14.1928 12.5344C14.2757 12.678 14.4122 12.7827 14.5723 12.8257C14.7325 12.8686 14.9031 12.8462 15.0467 12.7633L15.4116 12.5523C15.5862 12.7021 15.7869 12.8184 16.0037 12.8953V13.3156C16.0037 13.4814 16.0696 13.6404 16.1868 13.7576C16.304 13.8748 16.463 13.9406 16.6287 13.9406C16.7945 13.9406 16.9535 13.8748 17.0707 13.7576C17.1879 13.6404 17.2537 13.4814 17.2537 13.3156V12.8953C17.4706 12.8184 17.6713 12.7021 17.8459 12.5523L18.2108 12.7633C18.3057 12.8184 18.4135 12.8472 18.5233 12.8469C18.6609 12.8469 18.7947 12.8016 18.9039 12.7178C19.0131 12.634 19.0916 12.5166 19.1272 12.3836C19.1628 12.2507 19.1536 12.1097 19.1009 11.9826C19.0482 11.8554 18.955 11.7492 18.8358 11.6805ZM16.0037 11.1281C16.0037 11.0045 16.0404 10.8837 16.1091 10.7809C16.1777 10.6781 16.2754 10.598 16.3896 10.5507C16.5038 10.5034 16.6294 10.491 16.7507 10.5151C16.8719 10.5392 16.9833 10.5988 17.0707 10.6862C17.1581 10.7736 17.2176 10.885 17.2417 11.0062C17.2658 11.1274 17.2535 11.2531 17.2062 11.3673C17.1589 11.4815 17.0788 11.5791 16.976 11.6478C16.8732 11.7165 16.7524 11.7531 16.6287 11.7531C16.463 11.7531 16.304 11.6873 16.1868 11.5701C16.0696 11.4529 16.0037 11.2939 16.0037 11.1281Z" fill="#212022"/>
</g>
</svg>
