<svg width="20" height="20" viewBox="0 0 20 20" fill="currentColor" xmlns="http://www.w3.org/2000/svg">
<g id="type=warning">
<g id="Vector">
<path d="M8.64286 2.28571V11.2857C8.64286 11.6267 8.77832 11.9537 9.01944 12.1949C9.26055 12.436 9.58758 12.5714 9.92857 12.5714C10.2696 12.5714 10.5966 12.436 10.8377 12.1949C11.0788 11.9537 11.2143 11.6267 11.2143 11.2857V2.28571C11.2143 1.94472 11.0788 1.6177 10.8377 1.37658C10.5966 1.13546 10.2696 1 9.92857 1C9.58758 1 9.26055 1.13546 9.01944 1.37658C8.77832 1.6177 8.64286 1.94472 8.64286 2.28571Z" fill="currentColor"/>
<path d="M11.5321 18.1429C11.744 17.8257 11.8571 17.4529 11.8571 17.0714C11.8571 16.5599 11.654 16.0694 11.2923 15.7077C10.9306 15.346 10.4401 15.1429 9.92857 15.1429C9.54714 15.1429 9.17427 15.256 8.85712 15.4679C8.53996 15.6798 8.29277 15.981 8.1468 16.3334C8.00084 16.6858 7.96264 17.0736 8.03706 17.4477C8.11147 17.8218 8.29515 18.1654 8.56487 18.4351C8.83458 18.7048 9.17822 18.8885 9.55233 18.9629C9.92643 19.0374 10.3142 18.9992 10.6666 18.8532C11.019 18.7072 11.3202 18.46 11.5321 18.1429Z" fill="currentColor"/>
</g>
</g>
</svg>
