<svg width="20" height="20" viewBox="0 0 20 20" fill="currentColor" xmlns="http://www.w3.org/2000/svg">
    <g id="type=zoomIn">
        <path id="Vector"
              d="M11.8748 8.74993C11.8748 8.9157 11.809 9.07467 11.6918 9.19188C11.5745 9.30909 11.4156 9.37493 11.2498 9.37493H9.37481V11.2499C9.37481 11.4157 9.30896 11.5747 9.19175 11.6919C9.07454 11.8091 8.91557 11.8749 8.74981 11.8749C8.58405 11.8749 8.42508 11.8091 8.30787 11.6919C8.19066 11.5747 8.12481 11.4157 8.12481 11.2499V9.37493H6.24981C6.08405 9.37493 5.92508 9.30909 5.80787 9.19188C5.69066 9.07467 5.62481 8.9157 5.62481 8.74993C5.62481 8.58417 5.69066 8.4252 5.80787 8.30799C5.92508 8.19078 6.08405 8.12493 6.24981 8.12493H8.12481V6.24993C8.12481 6.08417 8.19066 5.9252 8.30787 5.80799C8.42508 5.69078 8.58405 5.62493 8.74981 5.62493C8.91557 5.62493 9.07454 5.69078 9.19175 5.80799C9.30896 5.9252 9.37481 6.08417 9.37481 6.24993V8.12493H11.2498C11.4156 8.12493 11.5745 8.19078 11.6918 8.30799C11.809 8.4252 11.8748 8.58417 11.8748 8.74993ZM17.942 17.9421C17.884 18.0002 17.815 18.0463 17.7392 18.0778C17.6633 18.1092 17.5819 18.1254 17.4998 18.1254C17.4177 18.1254 17.3364 18.1092 17.2605 18.0778C17.1846 18.0463 17.1157 18.0002 17.0576 17.9421L13.1467 14.0304C11.7855 15.1642 10.0396 15.7295 8.27226 15.6089C6.50487 15.4882 4.85204 14.6908 3.6576 13.3825C2.46316 12.0743 1.81907 10.3559 1.85932 8.58486C1.89957 6.81382 2.62106 5.12647 3.8737 3.87383C5.12635 2.62118 6.81369 1.89969 8.58474 1.85944C10.3558 1.8192 12.0742 2.46328 13.3824 3.65772C14.6907 4.85217 15.4881 6.505 15.6087 8.27238C15.7294 10.0398 15.1641 11.7856 14.0303 13.1468L17.942 17.0577C18.0001 17.1158 18.0462 17.1847 18.0777 17.2606C18.1091 17.3365 18.1253 17.4178 18.1253 17.4999C18.1253 17.5821 18.1091 17.6634 18.0777 17.7393C18.0462 17.8151 18.0001 17.8841 17.942 17.9421ZM8.74981 14.3749C9.86233 14.3749 10.9499 14.045 11.8749 13.427C12.7999 12.8089 13.5209 11.9304 13.9466 10.9025C14.3724 9.87469 14.4838 8.74369 14.2667 7.65255C14.0497 6.56141 13.514 5.55913 12.7273 4.77246C11.9406 3.98579 10.9383 3.45006 9.8472 3.23302C8.75605 3.01598 7.62505 3.12737 6.59722 3.55311C5.56938 3.97885 4.69088 4.69983 4.0728 5.62485C3.45471 6.54988 3.12481 7.63741 3.12481 8.74993C3.12647 10.2413 3.71963 11.6711 4.77416 12.7256C5.8287 13.7801 7.25848 14.3733 8.74981 14.3749Z"
              fill="currentColor"/>
    </g>
</svg>
