<svg width="20" height="20" viewBox="0 0 20 20" fill="currentColor" xmlns="http://www.w3.org/2000/svg">
    <g id="type=zoomOut">
        <path id="Vector"
              d="M11.8747 8.74993C11.8747 8.9157 11.8088 9.07467 11.6916 9.19188C11.5744 9.30909 11.4155 9.37493 11.2497 9.37493H6.24969C6.08393 9.37493 5.92496 9.30909 5.80775 9.19188C5.69054 9.07467 5.62469 8.9157 5.62469 8.74993C5.62469 8.58417 5.69054 8.4252 5.80775 8.30799C5.92496 8.19078 6.08393 8.12493 6.24969 8.12493H11.2497C11.4155 8.12493 11.5744 8.19078 11.6916 8.30799C11.8088 8.4252 11.8747 8.58417 11.8747 8.74993ZM17.9419 17.9421C17.8838 18.0002 17.8149 18.0463 17.739 18.0778C17.6632 18.1092 17.5818 18.1254 17.4997 18.1254C17.4176 18.1254 17.3362 18.1092 17.2604 18.0778C17.1845 18.0463 17.1156 18.0002 17.0575 17.9421L13.1466 14.0304C11.7854 15.1642 10.0395 15.7295 8.27214 15.6089C6.50475 15.4882 4.85192 14.6908 3.65748 13.3825C2.46304 12.0743 1.81895 10.3559 1.8592 8.58486C1.89945 6.81382 2.62094 5.12647 3.87358 3.87383C5.12622 2.62118 6.81357 1.89969 8.58462 1.85944C10.3557 1.8192 12.074 2.46328 13.3823 3.65772C14.6906 4.85217 15.488 6.505 15.6086 8.27238C15.7293 10.0398 15.1639 11.7856 14.0302 13.1468L17.9419 17.0577C18 17.1158 18.0461 17.1847 18.0775 17.2606C18.109 17.3365 18.1252 17.4178 18.1252 17.4999C18.1252 17.5821 18.109 17.6634 18.0775 17.7393C18.0461 17.8151 18 17.8841 17.9419 17.9421ZM8.74969 14.3749C9.86221 14.3749 10.9497 14.045 11.8748 13.427C12.7998 12.8089 13.5208 11.9304 13.9465 10.9025C14.3723 9.87469 14.4837 8.74369 14.2666 7.65255C14.0496 6.56141 13.5138 5.55913 12.7272 4.77246C11.9405 3.98579 10.9382 3.45006 9.84707 3.23302C8.75593 3.01598 7.62493 3.12737 6.5971 3.55311C5.56926 3.97885 4.69076 4.69983 4.07267 5.62485C3.45459 6.54988 3.12469 7.63741 3.12469 8.74993C3.12634 10.2413 3.71951 11.6711 4.77404 12.7256C5.82858 13.7801 7.25836 14.3733 8.74969 14.3749Z"
              fill="currentColor"/>
    </g>
</svg>
